<?xml version="1.0" encoding="utf-8"?>
<!-- Generator: Adobe Illustrator 26.0.1, SVG Export Plug-In . SVG Version: 6.00 Build 0)  -->
<svg version="1.1" id="Layer_1" xmlns="http://www.w3.org/2000/svg" xmlns:xlink="http://www.w3.org/1999/xlink" x="0px" y="0px"
	 viewBox="0 0 1000 1000" style="enable-background:new 0 0 1000 1000;" xml:space="preserve">
<style type="text/css">
	.st0{fill:url(#SVGID_1_);}
	.st1{fill:url(#SVGID_00000069386970766281201490000013669454769341592496_);}
	.st2{fill:#4B3F3A;}
	.st3{fill:#3A1A01;}
</style>
<linearGradient id="SVGID_1_" gradientUnits="userSpaceOnUse" x1="488.9928" y1="1004.0245" x2="483.2481" y2="715.6415" gradientTransform="matrix(1 0 0 -1 0 1000)">
	<stop  offset="0" style="stop-color:#D8C89E"/>
	<stop  offset="0.4946" style="stop-color:#C8AA61"/>
	<stop  offset="0.6901" style="stop-color:#AA8547"/>
	<stop  offset="0.8891" style="stop-color:#916631"/>
	<stop  offset="1" style="stop-color:#875A29"/>
</linearGradient>
<path class="st0" d="M743.24,49.38c-45.51,44.53-79.95,92.06-99.13,137.7c-20.09,47.87-32.78,89.69-48.51,98.89v6.62H382.27v-6.66
	c-20.84-20.18-30-70-54.44-115.56c-23.89-44.51-66.15-90.41-95.37-118.41c-0.71-0.69-0.23-1.87,0.77-1.85
	c22.95,0.77,50.9,1.34,64.78,1.6c1.91,0.04,3.54,0.07,4.87,0.09c2.04,0.04,3.86-1.35,4.24-3.35c1.21-6.42,4.94-11.59,12.28-14.47
	c5.73-2.26,13.67-3.13,24.34-2.09c0.32,0.03,0.65,0.06,1,0.09c10.18,1,29.76,2.9,51.28,4.45c0,0,0,0,0.01,0
	c37.85,2.72,81.71,4.36,91.04-1.94c7.8-5.27,14.43-11.36,28.2-15.94c12.36-4.11,30.46-7.01,60.31-7.01
	c16.34,0,29.53,0.53,40.12,1.79c30.35,3.6,39.45,13.18,40.52,33.47c0.09,1.78,1.64,3.11,3.4,2.96c6.22-0.54,12.36-1.05,18.35-1.51
	c26.67-2.05,50.35-3.09,64.36-1.58C743.66,46.82,744.19,48.45,743.24,49.38z"/>
<radialGradient id="SVGID_00000002376267402470536120000016118668364906515597_" cx="494.264" cy="354.2571" r="401.8877" gradientTransform="matrix(1 0 0 -1 0 1000)" gradientUnits="userSpaceOnUse">
	<stop  offset="0" style="stop-color:#EED276"/>
	<stop  offset="0.323" style="stop-color:#ECD074"/>
	<stop  offset="0.4815" style="stop-color:#E6C86F"/>
	<stop  offset="0.6041" style="stop-color:#DBBB66"/>
	<stop  offset="0.7083" style="stop-color:#CCA859"/>
	<stop  offset="0.8009" style="stop-color:#B89048"/>
	<stop  offset="0.8839" style="stop-color:#A07334"/>
	<stop  offset="0.9171" style="stop-color:#95652A"/>
</radialGradient>
<path style="fill:url(#SVGID_00000002376267402470536120000016118668364906515597_);" d="M861.3,847.84
	c-29.24-38.11-18.95-81.2-17.95-128.2c1.11-52.22,2.22-93.33-15-133.88c-15.31-36.04-19.64-71.66-16.51-103.33
	c0.84-8.56-0.93-17.15-4.82-24.8C745.51,336.75,642.82,311.46,595.6,299.3v-6.67H382.27v6.67
	c-126.68,32.49-177.53,101.69-209.95,155.53c-3.78,6.29-4.96,13.71-3.64,20.93c4.49,24.89-0.42,51.75-9.18,79.46
	c-10,31.67-23.33,94.44-18.33,163.33c3.87,53.22-1.11,83.24-11.78,105.57c-6.91,14.49-5.69,31.51,3.11,44.95
	c13.36,20.38,37.84,48.22,79.78,68.35c74.06,35.55,182.22,52.22,289.99,52.22c65,0,103.33-5.56,175.55-5.56
	c80.78,0,152.24-59.69,184.44-106.51c6.22-9.04,5.76-21.02-0.93-29.73H861.3z"/>
<path class="st2" d="M606.4,666.14c-17.22-12.02-50.82-25.87-100.82-41.51V515.56c20.84,1.33,35.22,8.78,43.15,22.33
	c4.58,7.82,7.71,20.22,9.38,37.22h83.22c-1.27-45.8-19.64-78.91-55.11-99.33c-19.53-12.78-46.4-20.42-80.62-22.91v-38.64h-30.69
	v38.07c-21.51,1.53-37.87,3.91-49.04,7.16c-18.35,5.16-35.02,14.51-50,28.04c-11.6,10.49-20.62,23-27.04,37.51
	c-6.44,14.51-9.64,30.64-9.64,48.38c0,26.91,8.27,49.91,24.84,69c16.55,19.09,44.98,33.98,85.26,44.67l25.62,6.87v122.24
	c-24.04-3.82-40.18-12.11-48.42-24.91c-3.96-6.16-7.27-16.8-9.93-31.91h-87.37c2.96,44.22,20.49,76.18,52.69,95.75
	c20.47,12.22,51.46,20.42,93.02,24.62v33.27h30.69v-33.84c32.69-2.29,60.95-10.11,84.8-23.47c39.02-21.75,58.53-56.69,58.53-104.77
	c0-36.44-14.18-64.71-42.53-84.73L606.4,666.14z M474.89,616.6c-15.4-4.38-26.8-9.16-34.18-14.31
	c-13.29-9.36-19.93-22.04-19.93-38.07c0-14.69,4.42-26.29,13.29-34.78c8.87-8.49,22.47-12.93,40.82-13.31v100.49L474.89,616.6z
	 M541.56,804.97c-7.51,4.96-19.51,8.4-35.98,10.31V703.36c17.51,5.91,29.93,11.64,37.22,17.18c12.31,9.56,18.47,22.53,18.47,38.93
	C561.27,781.04,554.69,796.2,541.56,804.97L541.56,804.97z"/>
<rect x="382.27" y="285.97" class="st3" width="213.33" height="13.33"/>
</svg>
