<svg id="svg" version="1.1" xmlns="http://www.w3.org/2000/svg" xmlns:xlink="http://www.w3.org/1999/xlink" width="400" height="400" viewBox="0, 0, 400,400"><g id="svgg"><path id="path0" d="M102.000 0.516 C 101.450 0.770,100.890 1.133,100.755 1.323 C 100.621 1.513,100.401 1.667,100.267 1.665 C 99.672 1.655,97.600 2.606,97.600 2.888 C 97.600 3.059,97.357 3.200,97.060 3.200 C 96.762 3.200,95.673 3.650,94.638 4.200 C 93.604 4.750,92.497 5.200,92.179 5.200 C 91.860 5.200,91.600 5.360,91.600 5.557 C 91.600 5.753,91.105 6.037,90.500 6.189 C 89.895 6.341,88.410 7.059,87.200 7.786 C 85.990 8.512,84.595 9.230,84.100 9.380 C 83.605 9.531,83.200 9.810,83.200 10.000 C 83.200 10.190,82.835 10.462,82.390 10.603 C 81.092 11.015,78.800 13.621,78.800 14.684 C 78.800 16.347,79.704 21.200,80.013 21.200 C 80.176 21.200,80.424 21.968,80.565 22.906 C 80.706 23.845,81.175 25.150,81.608 25.806 C 82.041 26.463,82.396 27.315,82.397 27.700 C 82.399 28.085,82.552 28.400,82.737 28.400 C 82.922 28.400,83.283 29.099,83.539 29.953 C 83.794 30.806,84.273 31.728,84.602 32.002 C 84.931 32.275,85.200 32.746,85.200 33.049 C 85.200 33.352,85.344 33.600,85.520 33.600 C 85.695 33.600,86.067 34.230,86.346 35.000 C 86.624 35.770,87.020 36.400,87.226 36.400 C 87.432 36.400,87.600 36.661,87.600 36.980 C 87.600 37.299,87.825 37.704,88.101 37.880 C 88.376 38.056,88.871 38.740,89.200 39.400 C 89.529 40.060,90.024 40.744,90.299 40.920 C 90.575 41.096,90.800 41.473,90.800 41.758 C 90.800 42.043,91.160 42.602,91.600 43.000 C 92.040 43.398,92.400 43.876,92.400 44.062 C 92.400 44.403,92.527 44.564,95.000 47.341 C 95.755 48.189,96.471 49.195,96.593 49.577 C 96.714 49.959,97.240 50.501,97.763 50.780 C 98.285 51.059,98.957 51.761,99.256 52.339 C 99.555 52.917,103.157 56.722,107.260 60.795 C 114.118 67.602,116.174 69.520,118.725 71.487 C 119.234 71.879,120.251 72.785,120.985 73.500 C 121.719 74.215,122.509 74.800,122.740 74.800 C 122.971 74.800,123.304 75.050,123.480 75.356 C 123.902 76.087,127.864 79.200,128.374 79.200 C 128.593 79.200,128.965 79.560,129.200 80.000 C 129.435 80.440,129.864 80.800,130.152 80.800 C 130.440 80.800,131.002 81.160,131.400 81.600 C 131.798 82.040,132.323 82.400,132.566 82.400 C 132.809 82.400,133.232 82.760,133.507 83.200 C 133.782 83.640,134.193 84.000,134.420 84.000 C 134.648 84.000,135.051 84.184,135.317 84.408 C 137.523 86.270,138.262 86.799,138.657 86.800 C 138.909 86.800,139.218 87.070,139.345 87.400 C 139.471 87.730,139.851 88.000,140.187 88.000 C 140.524 88.000,140.800 88.158,140.800 88.351 C 140.800 88.545,141.340 88.927,142.000 89.200 C 142.660 89.473,143.200 89.833,143.200 90.000 C 143.200 90.167,143.785 90.542,144.500 90.835 C 145.215 91.127,146.019 91.554,146.286 91.783 C 147.328 92.677,147.844 93.022,149.000 93.600 C 149.660 93.930,150.419 94.380,150.686 94.600 C 150.953 94.820,151.417 95.203,151.717 95.451 C 152.016 95.699,152.652 96.026,153.128 96.177 C 153.605 96.329,154.221 96.666,154.498 96.927 C 154.774 97.189,156.039 97.920,157.309 98.553 C 158.578 99.186,159.714 99.861,159.832 100.052 C 159.950 100.243,160.580 100.400,161.232 100.400 C 161.883 100.400,164.022 101.207,165.985 102.193 C 180.942 109.704,195.003 114.039,206.200 114.590 C 215.986 115.071,226.077 116.352,236.600 118.450 C 242.514 119.629,243.932 120.027,245.850 121.047 C 246.806 121.555,248.490 122.091,249.594 122.237 C 250.697 122.383,251.600 122.638,251.600 122.803 C 251.600 122.967,253.040 123.326,254.800 123.600 C 256.560 123.874,258.000 124.235,258.000 124.403 C 258.000 124.571,258.987 124.831,260.194 124.982 C 261.400 125.133,262.481 125.407,262.595 125.592 C 262.709 125.777,264.107 126.157,265.701 126.436 C 267.296 126.716,268.690 127.057,268.800 127.194 C 269.023 127.471,271.488 128.133,276.000 129.125 C 277.650 129.488,279.090 129.891,279.200 130.020 C 279.310 130.148,280.750 130.496,282.400 130.791 C 284.050 131.087,285.584 131.468,285.810 131.639 C 286.035 131.809,287.160 132.073,288.310 132.226 C 289.459 132.378,290.400 132.635,290.400 132.797 C 290.400 132.958,291.750 133.308,293.400 133.574 C 295.050 133.840,296.400 134.205,296.400 134.385 C 296.400 134.564,297.030 134.829,297.800 134.974 C 298.570 135.118,299.200 135.389,299.200 135.575 C 299.200 135.761,299.637 136.023,300.172 136.157 C 300.707 136.291,301.382 136.626,301.672 136.902 C 302.367 137.561,306.474 139.600,307.106 139.600 C 307.675 139.600,307.781 138.159,307.236 137.822 C 307.036 137.698,306.668 136.293,306.420 134.699 C 306.171 133.104,305.810 131.511,305.617 131.159 C 305.424 130.806,305.141 129.681,304.988 128.659 C 304.835 127.636,304.570 126.800,304.399 126.800 C 304.229 126.800,303.969 126.161,303.822 125.379 C 303.676 124.597,303.296 123.858,302.978 123.736 C 302.660 123.614,302.400 123.278,302.400 122.989 C 302.400 122.700,301.815 122.338,301.100 122.186 C 300.385 122.033,299.583 121.733,299.318 121.519 C 299.052 121.306,298.647 121.247,298.418 121.389 C 298.188 121.531,298.000 121.472,298.000 121.259 C 298.000 121.045,297.280 120.749,296.400 120.600 C 295.520 120.451,294.800 120.186,294.800 120.010 C 294.800 119.834,293.630 119.470,292.200 119.200 C 290.770 118.930,289.600 118.561,289.600 118.379 C 289.600 118.198,288.788 117.927,287.795 117.778 C 286.802 117.629,285.904 117.368,285.799 117.198 C 285.693 117.028,284.436 116.655,283.004 116.371 C 281.572 116.086,280.400 115.727,280.400 115.572 C 280.400 115.417,279.594 115.170,278.609 115.022 C 277.624 114.875,276.724 114.600,276.608 114.413 C 276.492 114.226,275.138 113.847,273.599 113.572 C 272.059 113.297,270.800 112.941,270.800 112.781 C 270.800 112.622,269.945 112.364,268.900 112.208 C 267.855 112.052,266.811 111.770,266.580 111.580 C 266.348 111.390,264.953 111.005,263.480 110.726 C 262.006 110.446,260.800 110.104,260.800 109.965 C 260.800 109.827,259.450 109.482,257.800 109.200 C 256.150 108.918,254.800 108.549,254.800 108.381 C 254.800 108.213,253.900 107.951,252.800 107.800 C 251.700 107.649,250.800 107.398,250.800 107.242 C 250.800 107.087,249.450 106.719,247.800 106.426 C 246.150 106.133,244.800 105.762,244.800 105.601 C 244.800 105.440,243.963 105.194,242.940 105.054 C 241.918 104.914,240.883 104.645,240.640 104.457 C 240.398 104.269,239.050 103.895,237.645 103.626 C 234.906 103.103,233.600 102.493,233.600 101.736 C 233.600 101.250,234.403 101.022,237.700 100.570 C 238.745 100.426,239.600 100.182,239.600 100.027 C 239.600 99.871,241.085 99.508,242.900 99.220 C 244.715 98.931,246.380 98.559,246.600 98.392 C 246.820 98.226,247.945 97.963,249.100 97.807 C 250.255 97.652,251.200 97.394,251.200 97.234 C 251.200 97.073,252.914 96.707,255.008 96.420 C 257.103 96.132,258.902 95.758,259.007 95.589 C 259.111 95.420,260.458 95.155,261.998 95.000 C 263.539 94.845,264.800 94.586,264.800 94.425 C 264.800 94.263,266.748 93.919,269.128 93.661 C 274.093 93.123,275.296 93.368,277.404 95.353 C 280.033 97.828,281.995 99.137,283.200 99.220 C 285.642 99.388,285.895 99.229,287.857 96.300 C 288.926 94.705,289.894 93.310,290.008 93.200 C 290.123 93.090,290.434 92.505,290.700 91.900 C 290.965 91.295,291.367 90.800,291.591 90.800 C 291.816 90.800,292.000 90.440,292.000 90.000 C 292.000 89.477,291.733 89.200,291.229 89.200 C 290.804 89.200,290.211 88.954,289.910 88.653 C 289.609 88.352,288.966 87.980,288.481 87.826 C 287.997 87.672,287.600 87.402,287.600 87.225 C 287.600 87.048,286.802 86.680,285.826 86.407 C 284.850 86.134,283.955 85.661,283.838 85.355 C 283.721 85.050,283.349 84.800,283.013 84.800 C 282.676 84.800,282.400 84.649,282.400 84.464 C 282.400 84.279,281.680 83.890,280.800 83.600 C 279.920 83.310,279.200 82.935,279.200 82.768 C 279.200 82.600,278.660 82.345,278.000 82.200 C 277.340 82.055,276.800 81.778,276.800 81.584 C 276.800 81.391,276.035 81.009,275.100 80.736 C 274.165 80.462,273.310 80.125,273.200 79.986 C 272.034 78.515,250.400 78.551,250.400 80.025 C 250.400 80.180,249.185 80.436,247.700 80.595 C 246.215 80.753,244.685 81.050,244.300 81.255 C 243.797 81.523,243.600 81.478,243.600 81.094 C 243.600 80.584,244.804 79.208,250.616 73.073 C 252.037 71.573,253.200 70.188,253.200 69.996 C 253.200 69.803,253.523 69.410,253.918 69.123 C 254.313 68.835,255.167 67.880,255.816 67.000 C 256.465 66.120,257.088 65.310,257.202 65.200 C 258.700 63.748,259.579 60.403,259.491 56.487 C 259.432 53.805,259.555 52.274,259.846 52.087 C 260.091 51.929,260.427 51.369,260.591 50.842 C 260.874 49.936,266.543 44.001,267.126 44.000 C 267.277 43.999,267.878 43.594,268.463 43.100 C 269.047 42.605,269.857 41.978,270.263 41.707 C 273.384 39.622,274.079 39.200,274.398 39.200 C 274.597 39.200,274.904 38.971,275.080 38.692 C 275.256 38.412,275.850 37.953,276.400 37.672 C 278.863 36.413,279.600 35.931,279.600 35.578 C 279.600 35.370,279.876 35.200,280.213 35.200 C 280.549 35.200,280.922 34.946,281.041 34.636 C 281.161 34.326,281.691 33.963,282.221 33.831 C 282.751 33.698,283.734 33.051,284.406 32.394 C 285.078 31.737,285.796 31.200,286.002 31.200 C 286.606 31.200,292.400 25.252,292.400 24.632 C 292.400 24.321,292.625 23.991,292.900 23.899 C 293.748 23.616,293.577 16.719,292.700 15.843 C 292.315 15.458,292.000 15.020,292.000 14.870 C 292.000 14.351,288.036 10.400,287.515 10.400 C 287.228 10.400,286.768 10.040,286.493 9.600 C 286.218 9.160,285.807 8.800,285.580 8.800 C 285.201 8.800,284.904 8.599,283.486 7.383 C 283.219 7.154,282.415 6.727,281.700 6.435 C 280.985 6.142,280.400 5.759,280.400 5.583 C 280.400 5.407,279.860 5.145,279.200 5.000 C 278.540 4.855,278.000 4.600,278.000 4.432 C 278.000 4.265,277.280 3.890,276.400 3.600 C 275.520 3.310,274.800 2.929,274.800 2.754 C 274.800 2.579,274.168 2.318,273.396 2.173 C 272.623 2.028,271.891 1.747,271.768 1.548 C 271.645 1.349,271.377 1.291,271.172 1.417 C 270.968 1.544,270.800 1.469,270.800 1.252 C 270.800 0.201,266.343 -0.056,251.200 0.123 C 234.395 0.321,234.800 0.298,234.800 1.067 C 234.800 1.360,234.485 1.627,234.100 1.661 C 233.715 1.694,233.160 1.741,232.866 1.764 C 232.572 1.787,232.121 2.093,231.864 2.445 C 231.607 2.796,230.948 3.224,230.398 3.396 C 229.849 3.567,229.302 3.859,229.183 4.044 C 229.063 4.229,228.523 4.430,227.983 4.490 C 227.442 4.551,226.730 4.886,226.400 5.236 C 226.070 5.586,225.262 6.005,224.604 6.168 C 223.946 6.330,223.274 6.674,223.110 6.932 C 222.886 7.284,222.811 7.279,222.806 6.913 C 222.803 6.644,222.531 6.528,222.202 6.654 C 221.874 6.781,221.723 7.076,221.868 7.310 C 222.033 7.577,221.883 7.641,221.466 7.481 C 221.099 7.340,220.800 7.418,220.800 7.655 C 220.800 7.892,220.530 7.982,220.200 7.855 C 219.846 7.719,219.600 7.851,219.600 8.176 C 219.600 8.501,218.783 8.936,217.600 9.239 C 216.500 9.521,215.600 9.883,215.600 10.044 C 215.600 10.205,215.060 10.455,214.400 10.600 C 213.740 10.745,213.200 11.001,213.200 11.168 C 213.200 11.336,212.210 11.694,211.000 11.965 C 209.790 12.236,208.800 12.609,208.800 12.794 C 208.800 12.978,208.080 13.251,207.200 13.400 C 206.320 13.549,205.600 13.834,205.600 14.035 C 205.600 14.236,205.319 14.400,204.976 14.400 C 204.633 14.400,204.454 14.237,204.577 14.037 C 204.700 13.838,204.426 13.773,203.967 13.893 C 203.316 14.063,203.250 14.194,203.666 14.490 C 204.047 14.761,203.943 14.813,203.300 14.672 C 202.806 14.564,202.300 14.638,202.177 14.838 C 202.054 15.037,201.603 15.200,201.176 15.200 C 200.749 15.200,200.400 15.380,200.400 15.600 C 200.400 15.820,200.119 16.000,199.776 16.000 C 199.388 16.000,199.263 15.811,199.445 15.500 C 199.606 15.225,199.353 15.337,198.884 15.749 C 198.414 16.160,197.758 16.393,197.426 16.266 C 197.095 16.138,196.559 16.298,196.237 16.620 C 195.915 16.942,195.557 17.055,195.443 16.870 C 195.180 16.444,192.682 16.783,192.355 17.290 C 192.220 17.498,191.230 17.751,190.155 17.850 C 189.080 17.950,188.140 18.204,188.067 18.416 C 187.993 18.627,187.543 18.797,187.067 18.794 C 186.360 18.789,186.311 18.716,186.800 18.400 C 187.319 18.065,187.310 18.011,186.733 18.006 C 186.367 18.003,186.001 18.197,185.921 18.437 C 185.579 19.463,167.062 19.458,166.416 18.432 C 166.297 18.244,164.850 17.986,163.200 17.859 C 161.550 17.732,159.930 17.604,159.600 17.574 C 159.270 17.545,159.450 17.361,160.000 17.167 C 160.796 16.885,160.653 16.845,159.300 16.969 C 158.365 17.054,157.509 16.977,157.398 16.797 C 157.287 16.617,156.477 16.348,155.598 16.200 C 154.719 16.051,154.000 15.774,154.000 15.583 C 154.000 15.392,153.370 15.118,152.600 14.974 C 151.830 14.829,151.200 14.557,151.200 14.368 C 151.200 14.179,150.930 14.129,150.600 14.255 C 150.270 14.382,150.000 14.286,150.000 14.043 C 150.000 13.799,149.795 13.600,149.544 13.600 C 149.293 13.600,148.888 13.328,148.644 12.995 C 148.400 12.663,147.840 12.320,147.400 12.233 C 145.405 11.839,144.400 11.488,144.400 11.184 C 144.400 11.002,144.037 10.739,143.594 10.598 C 143.151 10.457,142.899 10.163,143.034 9.944 C 143.170 9.726,143.037 9.590,142.740 9.642 C 142.079 9.760,140.000 8.789,140.000 8.363 C 140.000 8.193,139.637 7.939,139.194 7.798 C 138.751 7.657,138.481 7.393,138.594 7.210 C 138.707 7.027,138.246 6.685,137.570 6.449 C 136.893 6.214,136.454 5.836,136.594 5.610 C 136.733 5.385,136.657 5.177,136.424 5.150 C 136.191 5.122,135.865 5.073,135.700 5.040 C 135.038 4.906,134.116 4.148,133.476 3.211 C 133.104 2.667,132.800 2.471,132.800 2.776 C 132.800 3.081,132.087 2.581,131.216 1.665 L 129.632 0.000 116.316 0.027 C 107.147 0.046,102.689 0.198,102.000 0.516 M126.111 15.740 C 155.106 38.822,185.312 38.766,238.022 15.532 L 241.043 14.200 249.022 14.481 C 260.344 14.879,273.326 15.593,273.564 15.831 C 273.675 15.942,273.454 16.520,273.073 17.116 C 272.693 17.712,271.096 20.360,269.525 23.000 C 264.153 32.030,261.997 34.804,257.200 38.859 C 251.534 43.649,248.140 46.457,238.014 54.733 C 234.156 57.886,230.640 60.768,230.200 61.138 C 229.760 61.508,222.200 67.555,213.400 74.576 C 204.600 81.597,196.604 87.984,195.630 88.771 C 194.657 89.557,190.546 92.855,186.494 96.100 L 179.128 102.000 177.039 102.000 L 174.950 102.000 168.975 95.891 C 153.416 79.982,112.781 37.939,104.781 29.473 C 101.984 26.513,98.841 22.534,98.813 21.918 C 98.806 21.762,98.260 20.719,97.600 19.600 C 96.940 18.481,96.400 17.345,96.400 17.077 C 96.400 16.591,102.024 15.347,112.200 13.581 C 114.840 13.123,117.270 12.680,117.600 12.597 C 120.218 11.941,122.310 12.713,126.111 15.740 M124.600 122.400 C 124.160 122.589,123.975 122.756,124.189 122.772 C 124.403 122.787,124.133 123.109,123.589 123.486 C 121.910 124.651,121.761 124.791,113.876 132.666 C 105.775 140.758,100.066 146.802,99.400 147.995 C 99.180 148.389,98.415 149.221,97.700 149.845 C 96.985 150.468,96.400 151.177,96.400 151.420 C 96.400 151.662,95.770 152.386,95.000 153.028 C 94.230 153.670,93.600 154.417,93.600 154.688 C 93.600 154.959,92.970 155.754,92.200 156.455 C 91.430 157.155,90.800 157.963,90.800 158.250 C 90.800 158.537,90.442 158.963,90.005 159.197 C 89.567 159.432,89.098 160.067,88.962 160.609 C 88.826 161.151,88.585 161.514,88.425 161.416 C 88.266 161.317,87.629 162.039,87.010 163.018 C 86.391 163.998,85.730 164.800,85.542 164.800 C 85.354 164.800,85.200 165.064,85.200 165.386 C 85.200 165.708,84.840 166.165,84.400 166.400 C 83.960 166.635,83.600 167.094,83.600 167.418 C 83.600 167.742,83.240 168.316,82.800 168.693 C 82.360 169.070,82.000 169.608,82.000 169.889 C 82.000 170.170,81.816 170.400,81.590 170.400 C 81.365 170.400,81.009 170.850,80.800 171.400 C 80.591 171.950,80.279 172.400,80.108 172.400 C 79.936 172.400,79.537 172.985,79.220 173.700 C 78.904 174.415,78.237 175.440,77.739 175.979 C 77.240 176.517,76.623 177.462,76.367 178.079 C 76.112 178.695,75.745 179.200,75.551 179.200 C 75.358 179.200,75.200 179.476,75.200 179.813 C 75.200 180.149,74.931 180.528,74.602 180.654 C 74.274 180.781,74.092 181.025,74.198 181.197 C 74.304 181.369,74.123 181.732,73.796 182.004 C 73.468 182.276,73.200 182.746,73.200 183.049 C 73.200 183.352,73.054 183.600,72.875 183.600 C 72.696 183.600,72.302 184.230,72.000 185.000 C 71.698 185.770,71.304 186.400,71.125 186.400 C 70.946 186.400,70.800 186.676,70.800 187.013 C 70.800 187.349,70.546 187.722,70.236 187.841 C 69.926 187.961,69.555 188.526,69.411 189.097 C 69.268 189.669,68.802 190.580,68.375 191.122 C 67.949 191.664,67.600 192.354,67.600 192.654 C 67.600 192.954,67.434 193.200,67.231 193.200 C 67.028 193.200,66.642 193.875,66.373 194.700 C 66.104 195.525,65.756 196.290,65.599 196.400 C 65.152 196.713,63.200 200.535,63.200 201.097 C 63.200 201.374,63.049 201.600,62.864 201.600 C 62.679 201.600,62.007 202.905,61.371 204.500 C 60.734 206.095,60.076 207.460,59.907 207.533 C 59.738 207.607,59.600 207.826,59.600 208.021 C 59.600 208.217,59.150 209.360,58.600 210.563 C 58.050 211.765,57.600 212.940,57.600 213.174 C 57.600 213.408,57.434 213.600,57.232 213.600 C 57.029 213.600,56.739 214.185,56.586 214.900 C 56.434 215.615,55.970 216.955,55.555 217.878 C 55.140 218.801,54.800 219.836,54.800 220.178 C 54.800 220.520,54.633 220.800,54.429 220.800 C 54.224 220.800,53.836 221.790,53.565 223.000 C 53.294 224.210,52.937 225.200,52.772 225.200 C 52.606 225.200,52.344 225.965,52.190 226.900 C 52.036 227.835,51.728 228.825,51.506 229.100 C 51.284 229.375,51.236 229.600,51.400 229.600 C 51.564 229.600,51.517 229.825,51.295 230.100 C 51.074 230.375,50.761 231.230,50.600 232.000 C 50.439 232.770,50.172 233.580,50.007 233.800 C 49.841 234.020,49.481 235.417,49.206 236.905 C 48.932 238.393,48.561 239.701,48.382 239.811 C 48.203 239.922,47.932 241.002,47.781 242.212 C 47.630 243.421,47.366 244.497,47.195 244.603 C 47.024 244.709,46.657 246.372,46.380 248.298 C 46.102 250.224,45.739 251.980,45.572 252.200 C 45.405 252.420,45.140 253.950,44.982 255.600 C 44.825 257.250,44.590 258.780,44.460 259.000 C 44.160 259.505,44.129 259.722,43.620 264.769 C 43.389 267.063,43.200 269.898,43.200 271.069 C 43.200 272.241,43.020 273.200,42.800 273.200 C 42.541 273.200,42.400 278.400,42.400 288.000 C 42.400 297.600,42.541 302.800,42.800 302.800 C 43.021 302.800,43.200 303.853,43.200 305.158 C 43.200 306.454,43.397 309.379,43.638 311.658 C 43.878 313.936,44.081 316.208,44.088 316.707 C 44.094 317.206,44.241 317.702,44.414 317.809 C 44.587 317.916,44.856 319.532,45.012 321.401 C 45.167 323.271,45.424 324.800,45.583 324.800 C 45.741 324.800,46.100 326.602,46.381 328.805 C 46.662 331.007,47.038 332.900,47.218 333.011 C 47.397 333.122,47.667 334.200,47.818 335.406 C 47.969 336.613,48.227 337.600,48.391 337.600 C 48.556 337.600,48.908 338.950,49.174 340.600 C 49.440 342.250,49.805 343.600,49.985 343.600 C 50.164 343.600,50.437 344.275,50.592 345.100 C 50.746 345.925,51.216 347.355,51.636 348.278 C 52.056 349.201,52.400 350.236,52.400 350.578 C 52.400 350.920,52.557 351.200,52.748 351.200 C 52.939 351.200,53.323 352.010,53.600 353.000 C 53.877 353.990,54.261 354.800,54.452 354.800 C 54.643 354.800,54.800 355.136,54.800 355.546 C 54.800 355.956,55.135 356.721,55.545 357.246 C 55.955 357.771,56.428 358.642,56.598 359.181 C 56.767 359.721,57.107 360.390,57.353 360.667 C 58.273 361.707,58.619 362.230,59.101 363.315 C 59.574 364.379,59.829 364.750,61.200 366.364 C 61.530 366.752,61.980 367.344,62.200 367.679 C 63.595 369.802,64.567 370.931,67.628 373.983 C 71.553 377.896,74.942 380.800,75.584 380.800 C 75.827 380.800,76.129 381.070,76.255 381.400 C 76.382 381.730,76.742 382.000,77.055 382.000 C 77.369 382.000,77.717 382.239,77.829 382.532 C 77.941 382.824,78.656 383.308,79.417 383.607 C 80.177 383.905,80.800 384.281,80.800 384.443 C 80.800 384.604,81.340 384.855,82.000 385.000 C 82.660 385.145,83.200 385.422,83.200 385.616 C 83.200 385.809,83.920 386.184,84.800 386.447 C 85.680 386.711,86.400 387.064,86.400 387.232 C 86.400 387.399,86.940 387.655,87.600 387.800 C 88.260 387.945,88.800 388.201,88.800 388.368 C 88.800 388.535,89.790 388.910,91.000 389.200 C 92.210 389.490,93.200 389.854,93.200 390.009 C 93.200 390.164,94.280 390.520,95.600 390.800 C 96.920 391.080,98.000 391.459,98.000 391.641 C 98.000 391.823,98.900 392.092,100.000 392.238 C 101.100 392.384,102.000 392.637,102.000 392.801 C 102.000 392.965,103.710 393.334,105.800 393.621 C 107.890 393.908,109.600 394.267,109.600 394.420 C 109.600 394.572,111.082 394.826,112.893 394.984 C 114.704 395.142,116.459 395.417,116.793 395.595 C 117.127 395.774,120.820 396.131,125.000 396.389 C 129.180 396.647,133.230 397.021,134.000 397.220 C 134.770 397.420,139.450 397.766,144.400 397.990 C 153.793 398.414,154.370 398.451,166.419 399.410 C 178.877 400.401,209.620 400.064,223.400 398.786 C 233.826 397.819,236.258 397.537,237.000 397.212 C 237.440 397.018,240.095 396.642,242.900 396.375 C 245.705 396.109,248.000 395.756,248.000 395.592 C 248.000 395.428,249.350 395.167,251.000 395.013 C 252.650 394.858,254.000 394.593,254.000 394.423 C 254.000 394.253,255.620 393.892,257.600 393.622 C 259.580 393.351,261.200 392.989,261.200 392.816 C 261.200 392.644,262.100 392.384,263.200 392.238 C 264.300 392.092,265.200 391.840,265.200 391.677 C 265.200 391.515,266.410 391.153,267.888 390.873 C 269.366 390.592,270.671 390.217,270.788 390.039 C 270.905 389.862,271.990 389.482,273.200 389.196 C 274.410 388.910,275.670 388.551,276.000 388.397 C 277.745 387.585,279.552 386.833,280.800 386.400 C 282.799 385.707,284.977 384.651,285.133 384.300 C 285.207 384.135,285.474 384.000,285.728 384.000 C 286.428 384.000,290.558 381.873,290.902 381.335 C 291.069 381.075,291.729 380.747,292.369 380.607 C 293.009 380.466,293.633 380.092,293.754 379.776 C 293.876 379.459,294.177 379.200,294.424 379.200 C 294.672 379.200,295.286 378.885,295.791 378.500 C 296.295 378.115,297.118 377.530,297.620 377.200 C 298.121 376.870,298.862 376.285,299.266 375.900 C 299.670 375.515,300.140 375.200,300.311 375.200 C 300.482 375.200,300.897 374.885,301.233 374.500 C 301.570 374.115,302.350 373.440,302.969 373.000 C 305.102 371.481,308.851 367.544,311.486 364.055 C 311.879 363.535,312.515 362.820,312.900 362.466 C 313.285 362.112,313.600 361.680,313.600 361.507 C 313.600 361.334,314.224 360.304,314.987 359.219 C 315.749 358.134,316.489 356.786,316.630 356.223 C 316.771 355.660,317.042 355.200,317.232 355.200 C 317.662 355.200,319.600 351.159,319.600 350.261 C 319.600 349.898,319.781 349.600,320.002 349.600 C 320.222 349.600,320.620 348.790,320.884 347.800 C 321.149 346.810,321.509 346.000,321.683 346.000 C 321.857 346.000,322.001 345.595,322.002 345.100 C 322.004 344.605,322.279 343.675,322.613 343.034 C 322.947 342.393,323.437 340.728,323.702 339.334 C 323.966 337.940,324.305 336.800,324.454 336.800 C 324.603 336.800,324.852 335.855,325.007 334.700 C 325.163 333.545,325.445 332.407,325.636 332.170 C 325.826 331.934,326.205 329.639,326.478 327.070 C 326.750 324.502,327.095 322.400,327.244 322.400 C 327.392 322.400,327.643 320.555,327.801 318.300 C 327.959 316.045,328.231 314.020,328.405 313.800 C 329.579 312.316,329.887 274.615,328.788 266.800 C 328.587 265.370,328.219 262.400,327.970 260.200 C 327.721 258.000,327.389 256.110,327.232 256.000 C 327.076 255.890,326.722 253.824,326.447 251.409 C 326.172 248.993,325.801 246.833,325.624 246.609 C 325.446 246.384,325.171 245.300,325.013 244.200 C 324.855 243.100,324.588 242.020,324.421 241.800 C 324.254 241.580,323.885 240.005,323.602 238.300 C 323.319 236.595,322.955 235.200,322.795 235.200 C 322.634 235.200,322.381 234.444,322.234 233.520 C 322.086 232.596,321.820 231.651,321.642 231.420 C 321.465 231.189,321.088 229.875,320.805 228.500 C 320.522 227.125,320.156 226.000,319.991 226.000 C 319.826 226.000,319.575 225.230,319.434 224.289 C 319.293 223.349,318.930 222.101,318.627 221.516 C 318.323 220.932,317.954 219.902,317.806 219.227 C 317.658 218.552,317.399 218.000,317.232 218.000 C 317.064 218.000,316.706 217.010,316.435 215.800 C 316.164 214.590,315.796 213.600,315.616 213.600 C 315.436 213.600,315.171 212.970,315.026 212.200 C 314.882 211.430,314.629 210.800,314.465 210.800 C 314.300 210.800,313.945 209.973,313.675 208.963 C 313.404 207.953,312.917 206.860,312.592 206.535 C 312.266 206.209,312.000 205.596,312.000 205.171 C 312.000 204.747,311.843 204.400,311.652 204.400 C 311.461 204.400,311.077 203.590,310.800 202.600 C 310.523 201.610,310.168 200.800,310.012 200.800 C 309.856 200.800,309.490 200.080,309.200 199.200 C 308.910 198.320,308.535 197.600,308.368 197.600 C 308.200 197.600,307.945 197.060,307.800 196.400 C 307.655 195.740,307.400 195.200,307.232 195.200 C 307.065 195.200,306.690 194.480,306.400 193.600 C 306.110 192.720,305.721 192.000,305.536 192.000 C 305.351 192.000,305.200 191.724,305.200 191.387 C 305.200 191.051,304.930 190.671,304.600 190.545 C 304.270 190.418,304.000 190.090,304.000 189.817 C 304.000 189.265,302.080 185.515,301.636 185.200 C 301.481 185.090,301.118 184.415,300.829 183.700 C 300.540 182.985,300.145 182.400,299.951 182.400 C 299.758 182.400,299.600 182.185,299.600 181.922 C 299.600 181.478,297.713 178.452,297.155 178.000 C 297.019 177.890,296.788 177.416,296.642 176.948 C 296.496 176.479,296.025 175.669,295.596 175.148 C 294.369 173.659,294.232 173.462,293.684 172.400 C 293.401 171.850,292.681 170.830,292.084 170.134 C 291.488 169.437,290.690 168.357,290.311 167.734 C 288.941 165.477,288.592 164.995,288.100 164.680 C 287.825 164.504,287.600 164.114,287.600 163.813 C 287.600 163.513,287.465 163.207,287.300 163.133 C 287.135 163.060,286.470 162.280,285.822 161.400 C 285.174 160.520,284.409 159.656,284.122 159.480 C 283.835 159.304,283.600 158.939,283.600 158.669 C 283.600 158.399,283.285 157.894,282.900 157.547 C 282.515 157.199,281.851 156.428,281.425 155.832 C 279.982 153.816,277.682 151.074,275.394 148.643 C 274.730 147.938,273.605 146.569,272.894 145.602 C 272.182 144.634,271.597 144.013,271.594 144.221 C 271.591 144.430,271.419 144.333,271.213 144.007 C 270.442 142.788,267.615 139.746,261.247 133.283 L 254.693 126.632 249.348 126.616 C 246.408 126.607,244.002 126.719,244.001 126.865 C 243.997 127.874,246.004 135.265,246.590 136.400 C 247.449 138.062,253.472 147.590,255.821 151.000 C 256.729 152.320,259.131 155.830,261.158 158.800 C 263.185 161.770,266.537 166.630,268.608 169.600 C 293.032 204.626,302.841 222.229,310.189 244.224 C 322.334 280.580,323.176 313.089,312.564 335.936 C 311.814 337.550,311.200 338.929,311.200 339.001 C 311.200 339.072,310.442 340.451,309.515 342.065 C 305.010 349.913,299.436 356.341,291.000 363.414 C 277.762 374.513,255.426 382.180,228.800 384.765 C 175.519 389.936,151.882 389.081,128.200 381.125 C 101.814 372.261,72.907 349.583,63.848 330.640 C 56.461 315.195,54.045 281.819,58.429 255.800 C 63.786 224.011,81.183 188.990,105.806 160.430 C 112.807 152.310,116.141 148.701,125.231 139.402 L 132.662 131.800 133.766 127.600 C 135.130 122.410,135.265 122.675,131.300 122.770 C 129.189 122.821,128.000 122.696,128.000 122.425 C 128.000 121.924,125.747 121.907,124.600 122.400 M173.000 175.869 C 141.631 179.771,120.926 194.971,106.824 224.452 C 83.661 272.875,96.916 316.689,142.922 343.765 C 167.472 358.213,194.352 359.935,218.153 348.585 C 224.783 345.424,229.499 342.583,235.504 338.135 C 244.847 331.215,251.119 324.986,255.524 318.258 C 277.051 285.372,277.582 249.599,257.087 213.000 L 254.175 207.800 242.044 198.677 C 235.372 193.659,229.841 189.626,229.753 189.714 C 229.601 189.866,234.268 202.718,236.829 209.200 C 237.481 210.850,238.663 213.010,239.455 214.000 C 266.924 248.305,266.939 282.467,239.500 316.286 C 237.153 319.178,238.411 318.688,223.800 322.403 C 213.049 325.137,205.907 326.963,189.400 331.199 C 164.930 337.480,161.251 338.400,160.618 338.400 C 159.598 338.400,149.501 327.970,143.891 321.120 C 137.104 312.833,129.876 301.049,126.788 293.235 C 126.492 292.484,125.262 290.234,124.057 288.235 C 112.790 269.553,110.308 255.879,116.139 244.600 C 120.014 237.104,124.192 231.740,137.629 217.006 C 138.635 215.902,139.892 214.370,140.422 213.600 C 141.910 211.440,150.314 201.842,154.471 197.554 C 158.167 193.741,158.223 193.703,160.800 193.248 C 170.211 191.587,179.518 189.934,182.600 189.377 C 184.580 189.019,192.554 187.608,200.320 186.241 L 214.441 183.756 212.120 181.746 C 210.844 180.640,209.350 179.451,208.800 179.103 C 205.341 176.913,181.743 174.782,173.000 175.869 M168.800 215.175 C 166.050 215.918,161.599 217.610,159.105 218.861 C 155.490 220.675,155.241 223.210,156.526 245.200 C 158.105 272.240,160.145 288.031,163.263 297.367 C 165.187 303.127,170.133 307.520,184.466 316.200 C 186.283 317.300,188.911 318.977,190.306 319.927 C 192.457 321.391,193.036 321.612,194.106 321.377 C 195.611 321.046,198.347 319.842,199.237 319.118 C 200.030 318.474,206.014 302.104,215.802 273.800 C 217.628 268.520,220.309 260.780,221.760 256.600 C 223.211 252.420,224.398 248.772,224.399 248.493 C 224.402 247.185,212.501 228.136,210.037 225.505 C 202.991 217.983,179.856 212.187,168.800 215.175 M190.000 232.932 C 193.916 234.657,206.680 243.201,207.119 244.390 C 207.341 244.994,194.624 253.764,190.451 255.885 C 184.228 259.047,184.328 259.072,175.000 251.995 C 171.920 249.658,168.185 246.888,166.700 245.838 C 163.466 243.552,163.468 243.562,166.031 242.222 C 167.147 241.638,170.882 239.432,174.331 237.321 C 184.745 230.943,185.198 230.816,190.000 232.932 M188.982 273.771 C 190.972 274.745,194.234 276.680,196.231 278.071 C 207.418 285.863,208.041 286.392,206.668 286.919 C 206.375 287.031,203.904 288.695,201.176 290.617 C 187.070 300.554,185.308 300.862,177.327 294.784 C 174.727 292.803,171.033 290.062,169.117 288.692 C 164.853 285.642,164.748 286.346,170.100 282.088 C 172.575 280.118,175.770 277.553,177.200 276.387 C 183.335 271.386,183.867 271.268,188.982 273.771 " stroke="none" fill="#4b3a32" fill-rule="evenodd"></path><path id="path1" d="M212.200 184.415 C 211.320 184.595,209.070 185.015,207.200 185.348 C 205.330 185.681,199.660 186.698,194.600 187.607 C 189.540 188.517,182.430 189.780,178.800 190.415 C 169.784 191.991,161.266 193.516,159.704 193.834 C 158.689 194.041,157.768 194.891,155.460 197.749 C 153.839 199.757,149.330 204.866,145.440 209.103 C 124.237 232.195,116.768 258.426,124.028 284.301 C 126.243 292.195,126.534 292.643,147.226 320.000 C 151.303 325.390,155.972 331.740,157.603 334.111 C 159.771 337.264,160.733 338.355,161.183 338.175 C 161.523 338.040,166.570 336.709,172.400 335.218 C 178.230 333.727,189.120 330.935,196.600 329.014 C 222.399 322.387,228.614 320.797,232.800 319.753 C 237.352 318.617,237.339 318.626,240.635 314.400 C 257.101 293.289,263.306 269.836,257.771 249.630 C 256.653 245.548,255.448 241.812,254.923 240.800 C 254.638 240.250,254.404 239.587,254.402 239.326 C 254.391 237.128,245.606 222.321,240.387 215.704 C 238.549 213.373,237.271 211.263,236.569 209.400 C 235.989 207.860,235.105 205.520,234.605 204.200 C 234.105 202.880,232.786 199.370,231.674 196.400 C 230.562 193.430,229.422 190.417,229.140 189.705 C 228.652 188.471,228.313 188.304,222.014 186.205 C 215.173 183.924,214.868 183.869,212.200 184.415 M255.483 209.400 C 256.768 211.291,261.371 220.222,263.214 224.400 C 274.024 248.909,275.510 271.957,267.751 294.746 C 264.735 303.604,256.628 318.697,252.269 323.571 L 251.400 324.542 252.800 323.599 C 255.343 321.886,259.928 317.604,261.920 315.082 C 265.492 310.560,269.080 304.947,268.665 304.531 C 268.552 304.418,268.150 304.927,267.772 305.663 C 265.841 309.424,261.556 315.244,258.375 318.425 C 255.656 321.144,256.204 320.140,259.206 316.900 C 262.065 313.816,266.855 307.017,267.379 305.300 C 267.530 304.805,267.822 304.400,268.027 304.400 C 268.232 304.400,268.402 304.175,268.404 303.900 C 268.406 303.625,268.850 302.500,269.391 301.400 C 269.932 300.300,270.381 299.175,270.387 298.900 C 270.394 298.625,270.591 298.400,270.824 298.400 C 271.057 298.400,271.173 298.535,271.082 298.700 C 270.143 300.406,268.788 303.722,268.961 303.894 C 269.180 304.113,269.973 302.429,271.894 297.660 C 272.690 295.684,272.804 295.050,272.407 294.805 C 272.127 294.631,272.033 294.270,272.199 294.002 C 272.422 293.640,272.573 293.633,272.784 293.974 C 273.202 294.650,274.412 290.577,274.175 289.291 C 274.064 288.691,274.153 287.390,274.372 286.400 C 274.768 284.613,274.769 284.618,274.599 287.000 C 274.363 290.299,274.928 288.475,276.086 282.200 C 277.278 275.741,277.388 258.445,276.276 252.400 C 274.916 245.010,274.668 244.101,274.322 245.209 C 274.118 245.863,274.082 245.612,274.216 244.472 C 274.420 242.728,272.105 234.776,270.614 232.105 L 269.997 231.000 270.216 232.200 L 270.434 233.400 269.880 232.200 C 269.547 231.480,269.476 230.901,269.703 230.752 C 269.917 230.611,269.539 229.332,268.828 227.797 C 268.139 226.309,267.472 225.194,267.346 225.321 C 267.220 225.447,267.392 226.101,267.728 226.775 C 268.064 227.449,268.217 228.000,268.069 227.999 C 267.921 227.999,267.261 226.874,266.602 225.499 C 265.943 224.125,265.304 222.910,265.183 222.800 C 265.061 222.690,264.448 221.700,263.820 220.600 C 263.191 219.500,261.611 217.255,260.308 215.610 C 259.005 213.966,258.140 212.553,258.386 212.471 C 258.712 212.363,258.708 212.171,258.371 211.766 C 258.117 211.459,257.722 211.325,257.493 211.466 C 257.264 211.608,257.187 211.544,257.323 211.325 C 257.458 211.106,256.916 210.313,256.118 209.563 C 254.675 208.207,254.672 208.206,255.483 209.400 M260.016 214.400 C 260.787 215.390,261.938 216.973,262.575 217.918 C 263.643 219.501,264.995 220.889,264.177 219.562 C 262.913 217.511,260.319 214.058,259.542 213.393 C 258.964 212.898,259.143 213.278,260.016 214.400 M181.347 214.602 C 202.682 217.097,208.809 220.823,218.185 237.000 C 220.693 241.327,221.013 241.864,223.355 245.671 L 224.911 248.200 222.980 253.971 C 221.918 257.146,220.471 261.376,219.764 263.371 C 219.057 265.367,217.453 269.970,216.199 273.600 C 208.727 295.237,201.518 315.368,200.362 317.830 C 199.380 319.921,194.096 322.575,192.638 321.711 C 192.397 321.568,190.760 320.527,189.000 319.396 C 187.240 318.266,184.653 316.634,183.250 315.770 C 171.947 308.808,165.931 303.844,163.896 299.800 C 161.049 294.144,158.237 276.987,157.011 257.800 C 154.550 219.262,154.414 220.541,161.284 217.578 C 169.694 213.950,172.376 213.552,181.347 214.602 M264.637 221.000 C 264.794 221.440,265.143 222.070,265.413 222.400 C 265.684 222.730,266.029 223.405,266.180 223.900 C 266.330 224.395,266.639 224.800,266.865 224.800 C 267.091 224.800,266.785 223.945,266.185 222.900 C 264.905 220.672,264.222 219.834,264.637 221.000 M183.400 232.471 C 182.740 232.718,178.643 235.058,174.295 237.671 C 169.947 240.284,165.942 242.626,165.395 242.875 C 164.002 243.510,164.088 243.667,166.900 245.627 C 168.275 246.585,171.380 248.912,173.800 250.798 C 181.344 256.676,183.098 257.707,185.216 257.506 C 187.672 257.273,192.649 254.718,198.049 250.919 C 200.488 249.204,203.455 247.118,204.642 246.284 C 207.327 244.397,207.377 244.628,203.719 242.000 C 191.338 233.105,187.060 231.099,183.400 232.471 M271.920 237.400 C 271.920 238.033,271.854 237.992,271.600 237.200 C 271.424 236.650,271.280 235.840,271.280 235.400 C 271.280 234.767,271.346 234.808,271.600 235.600 C 271.776 236.150,271.920 236.960,271.920 237.400 M275.594 250.924 C 275.597 251.322,275.420 251.536,275.200 251.400 C 274.980 251.264,274.803 250.668,274.806 250.076 C 274.811 249.234,274.897 249.131,275.200 249.600 C 275.413 249.930,275.591 250.526,275.594 250.924 M275.887 255.095 C 275.795 255.703,275.717 255.300,275.714 254.200 C 275.711 253.100,275.787 252.603,275.882 253.095 C 275.977 253.586,275.979 254.486,275.887 255.095 M276.292 260.691 C 276.205 261.521,276.133 260.940,276.131 259.400 C 276.129 257.860,276.200 257.181,276.289 257.891 C 276.377 258.601,276.379 259.861,276.292 260.691 M276.289 275.700 C 276.201 276.415,276.128 275.830,276.128 274.400 C 276.128 272.970,276.201 272.385,276.289 273.100 C 276.378 273.815,276.378 274.985,276.289 275.700 M181.000 273.939 C 179.680 274.828,176.814 277.034,174.632 278.842 C 172.450 280.650,169.521 282.983,168.125 284.027 L 165.585 285.926 167.049 286.830 C 167.854 287.328,170.963 289.629,173.956 291.943 C 183.913 299.641,184.432 299.803,190.257 297.037 C 194.164 295.182,206.411 287.067,206.652 286.173 C 206.843 285.469,192.753 275.810,188.800 273.935 C 184.782 272.029,183.838 272.029,181.000 273.939 M275.887 280.295 C 275.795 280.903,275.717 280.500,275.714 279.400 C 275.711 278.300,275.787 277.803,275.882 278.295 C 275.977 278.786,275.979 279.686,275.887 280.295 M275.600 282.976 C 275.600 283.293,275.420 283.664,275.200 283.800 C 274.980 283.936,274.800 283.677,274.800 283.224 C 274.800 282.771,274.980 282.400,275.200 282.400 C 275.420 282.400,275.600 282.659,275.600 282.976 M255.800 320.800 C 255.402 321.240,254.926 321.600,254.742 321.600 C 254.558 321.600,254.716 321.240,255.093 320.800 C 255.470 320.360,255.946 320.000,256.151 320.000 C 256.356 320.000,256.198 320.360,255.800 320.800 " stroke="none" fill="#f0c909" fill-rule="evenodd"></path><path id="path2" d="M104.800 15.441 C 103.370 15.750,101.030 16.217,99.600 16.478 C 98.170 16.739,96.945 16.988,96.878 17.031 C 96.682 17.159,100.369 23.684,101.379 24.998 C 102.841 26.898,109.140 33.508,129.398 54.403 C 132.919 58.035,140.480 65.857,146.200 71.787 C 151.920 77.716,159.783 85.818,163.673 89.790 C 167.563 93.763,171.169 97.505,171.686 98.107 C 172.203 98.708,172.788 99.200,172.988 99.200 C 173.187 99.200,172.890 98.705,172.328 98.100 C 171.291 96.983,164.842 88.685,157.952 79.600 C 151.809 71.499,124.818 36.136,121.579 31.944 C 119.940 29.823,116.350 25.105,113.600 21.459 C 110.850 17.812,108.330 14.840,108.000 14.854 C 107.670 14.867,106.230 15.131,104.800 15.441 M160.100 100.812 C 159.605 101.011,159.200 101.360,159.200 101.587 C 159.200 101.814,158.924 102.000,158.587 102.000 C 158.251 102.000,157.883 102.239,157.771 102.532 C 157.659 102.824,156.944 103.308,156.183 103.607 C 155.423 103.905,154.800 104.296,154.800 104.475 C 154.800 104.654,154.524 104.800,154.187 104.800 C 153.851 104.800,153.478 105.054,153.359 105.364 C 153.239 105.674,152.738 106.029,152.245 106.153 C 151.751 106.277,150.963 106.698,150.493 107.089 C 148.547 108.708,147.811 109.200,147.339 109.200 C 147.064 109.200,146.696 109.436,146.520 109.723 C 146.344 110.011,145.615 110.483,144.900 110.772 C 144.185 111.061,143.600 111.455,143.600 111.649 C 143.600 111.842,143.339 112.000,143.020 112.000 C 142.701 112.000,142.296 112.225,142.120 112.501 C 141.944 112.776,141.260 113.271,140.600 113.600 C 139.940 113.929,139.256 114.424,139.080 114.699 C 138.904 114.975,138.499 115.200,138.180 115.200 C 137.861 115.200,137.600 115.358,137.600 115.551 C 137.600 115.745,137.015 116.143,136.300 116.437 C 135.585 116.730,134.820 117.115,134.600 117.293 C 134.380 117.470,133.774 117.966,133.252 118.396 C 132.731 118.825,131.966 119.284,131.552 119.415 C 131.139 119.546,130.800 119.822,130.800 120.027 C 130.800 120.232,130.575 120.404,130.300 120.409 C 130.025 120.414,129.350 120.770,128.800 121.200 L 127.800 121.982 131.700 121.991 C 136.160 122.001,136.009 121.823,134.805 125.664 C 134.368 127.059,134.002 128.470,133.991 128.800 C 133.923 130.892,131.810 133.562,123.795 141.683 C 115.283 150.308,111.702 154.170,107.179 159.600 C 105.805 161.250,104.562 162.690,104.416 162.800 C 104.271 162.910,102.485 165.160,100.447 167.800 C 98.409 170.440,96.530 172.870,96.271 173.200 C 81.254 192.330,68.427 218.154,61.799 242.600 C 55.346 266.401,55.055 293.871,60.969 320.800 C 65.451 341.212,91.927 366.109,122.000 378.191 C 123.430 378.766,124.960 379.403,125.400 379.606 C 126.209 379.981,129.336 381.015,133.000 382.121 C 148.855 386.903,176.400 388.862,198.600 386.785 C 201.020 386.559,206.510 386.105,210.800 385.777 C 233.574 384.035,241.326 383.074,251.200 380.768 C 255.868 379.678,263.068 377.598,265.000 376.781 C 265.440 376.594,267.060 375.960,268.600 375.370 C 271.752 374.163,279.441 370.474,281.663 369.103 C 282.467 368.606,283.997 367.677,285.063 367.038 C 286.827 365.979,288.499 364.756,292.373 361.688 C 298.155 357.109,304.443 349.762,308.534 342.808 C 309.974 340.360,313.200 333.812,313.200 333.337 C 313.200 333.218,313.449 332.554,313.753 331.860 C 315.176 328.619,316.937 322.163,317.971 316.400 C 320.900 300.074,319.024 276.332,313.198 256.000 C 312.725 254.350,312.102 252.100,311.814 251.000 C 308.416 238.034,300.739 220.630,291.876 205.800 C 290.562 203.600,289.283 201.440,289.036 201.000 C 288.789 200.560,288.239 199.660,287.814 199.000 C 287.389 198.340,285.886 196.000,284.474 193.800 C 283.062 191.600,281.468 189.170,280.933 188.400 C 280.398 187.630,278.248 184.480,276.156 181.400 C 274.063 178.320,271.588 174.720,270.654 173.400 C 264.889 165.247,255.436 151.307,250.175 143.200 C 247.327 138.810,244.800 134.066,244.800 133.107 C 244.800 132.798,244.451 131.218,244.025 129.594 C 243.044 125.856,242.954 125.947,247.537 126.003 C 249.662 126.028,251.568 126.038,251.773 126.025 C 252.186 125.997,249.165 123.201,248.721 123.200 C 248.567 123.200,247.990 122.782,247.438 122.270 C 244.988 120.000,225.419 116.399,211.000 115.566 C 204.373 115.183,195.907 114.068,193.000 113.196 C 192.340 112.998,190.180 112.351,188.200 111.759 C 184.695 110.709,178.619 108.520,176.200 107.434 C 175.540 107.137,174.280 106.585,173.400 106.207 C 172.520 105.829,169.439 104.368,166.554 102.960 C 163.668 101.552,161.238 100.411,161.154 100.425 C 161.069 100.439,160.595 100.613,160.100 100.812 M190.678 175.424 C 194.375 175.767,198.390 176.216,199.600 176.422 C 200.810 176.628,202.970 176.998,204.400 177.244 C 207.877 177.841,212.796 180.842,214.800 183.589 C 214.910 183.740,218.290 184.971,222.311 186.324 L 229.621 188.785 236.711 194.083 C 240.610 196.997,243.980 199.534,244.200 199.721 C 244.420 199.908,246.633 201.567,249.119 203.409 C 256.997 209.248,264.950 219.123,268.923 228.000 C 280.306 253.430,280.013 283.894,268.177 305.816 C 264.535 312.561,258.252 319.928,253.286 323.279 C 252.783 323.618,250.622 325.584,248.483 327.648 C 237.713 338.042,227.217 345.266,215.400 350.416 C 201.754 356.362,186.873 358.095,172.200 355.444 C 165.691 354.268,159.496 352.345,153.400 349.607 C 148.468 347.392,147.081 346.683,143.000 344.292 C 136.692 340.595,135.269 339.663,130.200 335.916 C 103.682 316.313,90.404 284.373,96.395 254.600 C 97.740 247.919,98.247 245.914,100.193 239.600 C 100.983 237.036,101.942 234.403,102.618 232.940 C 102.938 232.246,103.200 231.554,103.200 231.400 C 103.200 230.510,109.693 217.434,111.641 214.400 C 125.350 193.051,139.976 182.346,162.952 176.843 C 164.026 176.585,167.266 176.115,170.152 175.797 C 173.039 175.479,175.940 175.151,176.600 175.069 C 179.435 174.717,184.405 174.842,190.678 175.424 M153.969 198.707 C 149.199 203.699,147.508 205.592,144.598 209.200 C 143.090 211.070,141.618 212.838,141.328 213.129 C 141.038 213.419,140.800 213.773,140.800 213.914 C 140.800 214.234,140.794 214.241,147.207 207.200 C 152.289 201.620,157.421 195.600,157.095 195.600 C 157.009 195.600,155.603 196.998,153.969 198.707 M134.494 221.123 C 122.158 234.697,116.011 243.787,114.152 251.200 C 113.003 255.782,113.954 265.571,115.997 270.200 C 116.191 270.640,116.472 271.450,116.623 272.000 C 117.306 274.507,120.545 281.147,123.743 286.600 C 125.033 288.800,125.964 290.240,125.813 289.800 C 117.723 266.314,120.812 243.836,135.171 221.700 C 136.491 219.665,137.517 218.000,137.452 218.000 C 137.386 218.000,136.055 219.405,134.494 221.123 M127.577 293.900 C 127.788 294.285,128.719 296.220,129.647 298.200 C 134.947 309.513,143.385 320.945,155.335 333.000 L 160.093 337.800 157.946 334.618 C 156.766 332.868,152.205 326.658,147.811 320.818 C 134.011 302.479,131.790 299.483,129.632 296.300 C 127.688 293.433,126.669 292.243,127.577 293.900 " stroke="none" fill="#fbfbfb" fill-rule="evenodd"></path><path id="path3" d="M114.400 13.630 C 112.310 14.031,110.002 14.368,109.271 14.380 C 108.117 14.397,108.018 14.475,108.517 14.974 C 108.832 15.289,111.230 18.370,113.845 21.818 C 116.460 25.267,119.940 29.824,121.579 31.945 C 124.809 36.125,151.782 71.465,157.952 79.600 C 160.038 82.350,163.872 87.344,166.472 90.697 C 171.790 97.554,172.212 98.334,168.900 95.186 L 166.600 93.000 168.765 95.278 C 169.956 96.531,171.126 97.521,171.365 97.478 C 171.604 97.435,171.751 97.638,171.690 97.930 C 171.630 98.221,171.744 98.358,171.945 98.234 C 172.145 98.110,172.532 98.277,172.804 98.604 C 173.076 98.932,173.152 99.200,172.974 99.200 C 172.796 99.200,173.168 99.740,173.800 100.400 C 175.074 101.729,178.589 102.140,179.671 101.085 C 179.962 100.802,182.450 98.780,185.200 96.592 C 187.950 94.404,190.560 92.307,191.000 91.932 C 191.440 91.556,195.670 88.175,200.400 84.418 C 205.130 80.661,209.270 77.362,209.600 77.086 C 209.930 76.810,213.350 74.082,217.200 71.023 C 221.050 67.964,224.290 65.348,224.400 65.209 C 224.510 65.070,226.850 63.176,229.600 61.000 C 232.350 58.824,234.690 56.935,234.800 56.803 C 234.987 56.578,239.845 52.602,245.959 47.670 C 247.412 46.498,249.050 45.146,249.600 44.666 C 250.150 44.186,252.670 42.061,255.200 39.943 C 261.964 34.280,263.250 32.697,268.803 23.200 C 270.411 20.450,272.060 17.768,272.469 17.239 C 273.484 15.925,274.639 16.066,257.403 15.403 C 248.861 15.074,241.797 14.730,241.705 14.638 C 241.613 14.546,240.517 14.924,239.269 15.478 C 236.799 16.574,230.719 19.088,223.800 21.875 C 181.728 38.822,153.872 37.436,127.250 17.069 C 120.847 12.170,121.332 12.300,114.400 13.630 M121.000 46.000 C 122.306 47.320,123.465 48.400,123.575 48.400 C 123.685 48.400,122.706 47.320,121.400 46.000 C 120.094 44.680,118.935 43.600,118.825 43.600 C 118.715 43.600,119.694 44.680,121.000 46.000 M132.600 58.000 C 134.128 59.540,135.469 60.800,135.579 60.800 C 135.689 60.800,134.528 59.540,133.000 58.000 C 131.472 56.460,130.131 55.200,130.021 55.200 C 129.911 55.200,131.072 56.460,132.600 58.000 M130.291 122.289 C 131.001 122.377,132.261 122.379,133.091 122.292 C 133.921 122.205,133.340 122.133,131.800 122.131 C 130.260 122.129,129.581 122.200,130.291 122.289 M247.091 126.289 C 247.801 126.377,249.061 126.379,249.891 126.292 C 250.721 126.205,250.140 126.133,248.600 126.131 C 247.060 126.129,246.381 126.200,247.091 126.289 M125.191 139.900 L 121.800 143.400 125.300 140.009 C 128.551 136.859,128.982 136.400,128.691 136.400 C 128.631 136.400,127.056 137.975,125.191 139.900 M179.715 175.096 C 180.988 175.176,182.968 175.175,184.115 175.094 C 185.262 175.014,184.220 174.949,181.800 174.950 C 179.380 174.951,178.442 175.016,179.715 175.096 M113.328 256.800 C 113.328 258.230,113.401 258.815,113.489 258.100 C 113.578 257.385,113.578 256.215,113.489 255.500 C 113.401 254.785,113.328 255.370,113.328 256.800 M56.546 283.000 C 56.547 285.200,56.614 286.049,56.695 284.887 C 56.776 283.724,56.776 281.924,56.693 280.887 C 56.611 279.849,56.545 280.800,56.546 283.000 M319.337 293.400 C 319.339 295.160,319.409 295.830,319.493 294.889 C 319.578 293.949,319.577 292.509,319.491 291.689 C 319.405 290.870,319.336 291.640,319.337 293.400 M319.337 303.000 C 319.339 304.760,319.409 305.430,319.493 304.489 C 319.578 303.549,319.577 302.109,319.491 301.289 C 319.405 300.470,319.336 301.240,319.337 303.000 M176.900 356.276 C 177.285 356.376,177.915 356.376,178.300 356.276 C 178.685 356.175,178.370 356.093,177.600 356.093 C 176.830 356.093,176.515 356.175,176.900 356.276 M192.900 356.276 C 193.285 356.376,193.915 356.376,194.300 356.276 C 194.685 356.175,194.370 356.093,193.600 356.093 C 192.830 356.093,192.515 356.175,192.900 356.276 M183.300 356.696 C 184.565 356.775,186.635 356.775,187.900 356.696 C 189.165 356.616,188.130 356.551,185.600 356.551 C 183.070 356.551,182.035 356.616,183.300 356.696 M155.700 386.676 C 156.085 386.776,156.715 386.776,157.100 386.676 C 157.485 386.575,157.170 386.493,156.400 386.493 C 155.630 386.493,155.315 386.575,155.700 386.676 M200.700 386.682 C 201.195 386.778,202.005 386.778,202.500 386.682 C 202.995 386.587,202.590 386.509,201.600 386.509 C 200.610 386.509,200.205 386.587,200.700 386.682 M166.900 387.476 C 167.285 387.576,167.915 387.576,168.300 387.476 C 168.685 387.375,168.370 387.293,167.600 387.293 C 166.830 387.293,166.515 387.375,166.900 387.476 M186.300 387.482 C 186.795 387.578,187.605 387.578,188.100 387.482 C 188.595 387.387,188.190 387.309,187.200 387.309 C 186.210 387.309,185.805 387.387,186.300 387.482 " stroke="none" fill="#afe0fa" fill-rule="evenodd"></path><path id="path4" d="M258.252 212.900 C 258.416 213.175,259.481 214.570,260.618 216.000 C 261.755 217.430,263.197 219.500,263.823 220.600 C 264.449 221.700,265.061 222.690,265.183 222.800 C 265.304 222.910,265.943 224.125,266.602 225.499 C 267.261 226.874,267.924 227.999,268.076 227.999 C 268.228 228.000,268.094 227.505,267.779 226.900 C 267.463 226.295,267.204 225.575,267.202 225.300 C 267.201 225.025,267.038 224.800,266.839 224.800 C 266.641 224.800,266.273 224.305,266.023 223.700 C 265.298 221.947,264.363 220.326,263.035 218.518 C 262.356 217.592,261.080 215.845,260.200 214.634 C 258.817 212.732,257.393 211.465,258.252 212.900 M175.700 214.276 C 176.085 214.376,176.715 214.376,177.100 214.276 C 177.485 214.175,177.170 214.093,176.400 214.093 C 175.630 214.093,175.315 214.175,175.700 214.276 M261.228 220.600 C 261.228 220.820,261.486 221.450,261.800 222.000 C 262.114 222.550,262.372 222.820,262.372 222.600 C 262.372 222.380,262.114 221.750,261.800 221.200 C 261.486 220.650,261.228 220.380,261.228 220.600 M155.293 229.200 C 155.293 229.970,155.375 230.285,155.476 229.900 C 155.576 229.515,155.576 228.885,155.476 228.500 C 155.375 228.115,155.293 228.430,155.293 229.200 M269.717 231.985 C 269.963 232.636,270.226 233.108,270.301 233.032 C 270.551 232.783,269.920 230.800,269.591 230.800 C 269.414 230.800,269.471 231.333,269.717 231.985 M155.709 235.600 C 155.709 236.590,155.787 236.995,155.882 236.500 C 155.978 236.005,155.978 235.195,155.882 234.700 C 155.787 234.205,155.709 234.610,155.709 235.600 M271.280 235.400 C 271.280 235.840,271.424 236.650,271.600 237.200 C 271.854 237.992,271.920 238.033,271.920 237.400 C 271.920 236.960,271.776 236.150,271.600 235.600 C 271.346 234.808,271.280 234.767,271.280 235.400 M254.618 240.100 C 254.768 240.595,255.055 241.176,255.256 241.391 C 255.457 241.606,255.419 241.201,255.172 240.491 C 254.665 239.038,254.197 238.708,254.618 240.100 M268.856 240.800 C 268.856 241.130,269.011 241.760,269.200 242.200 C 269.417 242.704,269.544 242.778,269.544 242.400 C 269.544 242.070,269.389 241.440,269.200 241.000 C 268.983 240.496,268.856 240.422,268.856 240.800 M156.114 242.600 C 156.117 243.700,156.195 244.103,156.287 243.495 C 156.379 242.886,156.377 241.986,156.282 241.495 C 156.187 241.003,156.111 241.500,156.114 242.600 M256.229 244.400 C 256.376 244.950,256.664 245.670,256.867 246.000 C 257.125 246.417,257.157 246.295,256.971 245.600 C 256.824 245.050,256.536 244.330,256.333 244.000 C 256.075 243.583,256.043 243.705,256.229 244.400 M270.068 245.600 C 270.088 246.639,270.718 248.346,270.732 247.400 C 270.738 246.960,270.589 246.240,270.400 245.800 C 270.189 245.310,270.061 245.232,270.068 245.600 M257.450 248.400 C 257.590 249.170,257.861 250.160,258.054 250.600 C 258.294 251.149,258.324 250.961,258.150 250.000 C 258.010 249.230,257.739 248.240,257.546 247.800 C 257.306 247.251,257.276 247.439,257.450 248.400 M156.520 249.600 C 156.520 250.810,156.595 251.305,156.687 250.700 C 156.778 250.095,156.778 249.105,156.687 248.500 C 156.595 247.895,156.520 248.390,156.520 249.600 M274.806 250.076 C 274.803 250.668,274.980 251.264,275.200 251.400 C 275.711 251.716,275.711 250.390,275.200 249.600 C 274.897 249.131,274.811 249.234,274.806 250.076 M275.714 254.200 C 275.717 255.300,275.795 255.703,275.887 255.095 C 275.979 254.486,275.977 253.586,275.882 253.095 C 275.787 252.603,275.711 253.100,275.714 254.200 M271.892 256.800 C 272.012 258.670,272.175 260.275,272.255 260.367 C 272.535 260.688,272.350 256.584,272.014 255.000 C 271.777 253.883,271.740 254.427,271.892 256.800 M258.876 254.800 C 258.867 255.350,259.003 256.610,259.180 257.600 C 259.420 258.950,259.507 259.100,259.527 258.200 C 259.542 257.540,259.405 256.280,259.223 255.400 C 259.016 254.398,258.886 254.174,258.876 254.800 M156.909 256.000 C 156.909 256.990,156.987 257.395,157.082 256.900 C 157.178 256.405,157.178 255.595,157.082 255.100 C 156.987 254.605,156.909 255.010,156.909 256.000 M276.131 259.400 C 276.133 260.940,276.205 261.521,276.292 260.691 C 276.379 259.861,276.377 258.601,276.289 257.891 C 276.200 257.181,276.129 257.860,276.131 259.400 M259.758 265.400 C 259.758 268.480,259.821 269.687,259.897 268.082 C 259.973 266.478,259.973 263.958,259.896 262.482 C 259.819 261.007,259.757 262.320,259.758 265.400 M157.293 262.800 C 157.293 263.570,157.375 263.885,157.476 263.500 C 157.576 263.115,157.576 262.485,157.476 262.100 C 157.375 261.715,157.293 262.030,157.293 262.800 M272.542 265.800 C 272.541 267.780,272.608 268.640,272.692 267.712 C 272.776 266.784,272.777 265.164,272.695 264.112 C 272.612 263.060,272.543 263.820,272.542 265.800 M157.701 267.400 C 157.705 268.280,157.787 268.593,157.883 268.095 C 157.979 267.598,157.975 266.878,157.875 266.495 C 157.775 266.113,157.696 266.520,157.701 267.400 M259.293 272.800 C 259.293 273.570,259.375 273.885,259.476 273.500 C 259.576 273.115,259.576 272.485,259.476 272.100 C 259.375 271.715,259.293 272.030,259.293 272.800 M272.120 273.600 C 272.120 274.810,272.195 275.305,272.287 274.700 C 272.378 274.095,272.378 273.105,272.287 272.500 C 272.195 271.895,272.120 272.390,272.120 273.600 M276.128 274.400 C 276.128 275.830,276.201 276.415,276.289 275.700 C 276.378 274.985,276.378 273.815,276.289 273.100 C 276.201 272.385,276.128 272.970,276.128 274.400 M271.693 277.200 C 271.693 277.970,271.775 278.285,271.876 277.900 C 271.976 277.515,271.976 276.885,271.876 276.500 C 271.775 276.115,271.693 276.430,271.693 277.200 M275.714 279.400 C 275.717 280.500,275.795 280.903,275.887 280.295 C 275.979 279.686,275.977 278.786,275.882 278.295 C 275.787 277.803,275.711 278.300,275.714 279.400 M257.800 280.400 C 257.648 281.091,257.607 281.741,257.709 281.842 C 257.811 281.944,258.009 281.453,258.150 280.750 C 258.291 280.047,258.331 279.398,258.241 279.308 C 258.150 279.217,257.952 279.709,257.800 280.400 M274.800 283.224 C 274.800 283.677,274.980 283.936,275.200 283.800 C 275.420 283.664,275.600 283.293,275.600 282.976 C 275.600 282.659,275.420 282.400,275.200 282.400 C 274.980 282.400,274.800 282.771,274.800 283.224 M274.215 287.015 C 274.061 288.254,274.017 289.350,274.119 289.452 C 274.220 289.554,274.430 288.623,274.585 287.385 C 274.739 286.146,274.783 285.050,274.681 284.948 C 274.580 284.846,274.370 285.777,274.215 287.015 M266.067 298.380 C 265.833 299.051,265.727 299.600,265.831 299.600 C 266.101 299.600,266.856 297.522,266.657 297.324 C 266.567 297.233,266.301 297.708,266.067 298.380 M270.387 298.900 C 270.381 299.175,269.932 300.300,269.391 301.400 C 268.850 302.500,268.406 303.625,268.404 303.900 C 268.402 304.175,268.232 304.400,268.027 304.400 C 267.822 304.400,267.530 304.805,267.379 305.300 C 266.736 307.407,261.670 314.337,258.208 317.843 C 254.127 321.978,253.612 322.936,257.424 319.300 C 262.500 314.460,266.652 308.471,269.836 301.400 C 270.431 300.080,270.991 298.865,271.082 298.700 C 271.173 298.535,271.057 298.400,270.824 298.400 C 270.591 298.400,270.394 298.625,270.387 298.900 M264.465 302.217 C 263.795 303.688,263.923 304.002,264.647 302.665 C 264.986 302.040,265.188 301.454,265.096 301.363 C 265.005 301.271,264.721 301.656,264.465 302.217 M350.500 346.463 C 350.005 346.716,349.600 347.030,349.600 347.161 C 349.599 347.293,349.149 347.923,348.600 348.562 C 348.050 349.201,347.600 349.951,347.600 350.229 C 347.600 350.506,347.438 350.793,347.239 350.867 C 347.040 350.940,346.643 352.440,346.357 354.200 C 346.070 355.960,345.721 357.490,345.581 357.600 C 345.440 357.710,345.130 359.060,344.890 360.600 C 344.650 362.140,344.240 364.337,343.978 365.482 C 343.293 368.473,343.416 368.600,347.577 369.197 C 349.584 369.484,351.312 369.858,351.417 370.027 C 351.521 370.197,353.225 370.564,355.204 370.844 C 357.182 371.124,358.800 371.482,358.800 371.639 C 358.800 371.796,359.738 372.054,360.884 372.212 C 362.030 372.369,363.245 372.644,363.584 372.822 C 363.923 373.001,365.341 373.351,366.736 373.601 C 369.988 374.183,370.114 374.020,370.789 368.343 C 371.073 365.954,371.443 364.000,371.612 364.000 C 371.781 364.000,372.045 362.740,372.200 361.200 C 372.355 359.660,372.643 358.400,372.841 358.400 C 373.038 358.400,373.197 357.005,373.193 355.300 L 373.187 352.200 369.660 350.500 C 367.720 349.565,365.923 348.800,365.666 348.800 C 365.410 348.800,365.200 348.620,365.200 348.400 C 365.200 348.180,364.920 348.000,364.578 348.000 C 364.236 348.000,363.111 347.609,362.078 347.132 C 359.859 346.107,352.079 345.657,350.500 346.463 " stroke="none" fill="#f08d0c" fill-rule="evenodd"></path><path id="path5" d="M103.200 27.800 C 103.946 28.570,104.647 29.200,104.757 29.200 C 104.867 29.200,104.346 28.570,103.600 27.800 C 102.854 27.030,102.153 26.400,102.043 26.400 C 101.933 26.400,102.454 27.030,103.200 27.800 M112.600 37.600 C 113.459 38.480,114.252 39.200,114.362 39.200 C 114.472 39.200,113.859 38.480,113.000 37.600 C 112.141 36.720,111.348 36.000,111.238 36.000 C 111.128 36.000,111.741 36.720,112.600 37.600 M122.600 48.000 C 123.459 48.880,124.252 49.600,124.362 49.600 C 124.472 49.600,123.859 48.880,123.000 48.000 C 122.141 47.120,121.348 46.400,121.238 46.400 C 121.128 46.400,121.741 47.120,122.600 48.000 M133.583 59.300 C 135.241 61.066,135.600 61.384,135.600 61.083 C 135.600 61.019,134.745 60.164,133.700 59.183 L 131.800 57.400 133.583 59.300 M146.400 72.600 C 147.595 73.810,148.663 74.800,148.773 74.800 C 148.883 74.800,147.995 73.810,146.800 72.600 C 145.605 71.390,144.537 70.400,144.427 70.400 C 144.317 70.400,145.205 71.390,146.400 72.600 M157.800 84.400 C 159.106 85.720,160.265 86.800,160.375 86.800 C 160.485 86.800,159.506 85.720,158.200 84.400 C 156.894 83.080,155.735 82.000,155.625 82.000 C 155.515 82.000,156.494 83.080,157.800 84.400 M170.400 97.400 C 171.595 98.610,172.663 99.600,172.773 99.600 C 172.883 99.600,171.995 98.610,170.800 97.400 C 169.605 96.190,168.537 95.200,168.427 95.200 C 168.317 95.200,169.205 96.190,170.400 97.400 M209.105 115.083 C 209.602 115.179,210.322 115.175,210.705 115.075 C 211.087 114.975,210.680 114.896,209.800 114.901 C 208.920 114.905,208.607 114.987,209.105 115.083 M179.516 175.497 C 180.899 175.575,183.059 175.574,184.316 175.495 C 185.572 175.416,184.440 175.352,181.800 175.353 C 179.160 175.353,178.132 175.418,179.516 175.497 M151.178 201.100 L 149.800 202.600 151.300 201.222 C 152.125 200.463,152.800 199.788,152.800 199.722 C 152.800 199.416,152.462 199.704,151.178 201.100 M139.634 214.953 L 138.669 216.200 139.813 215.112 C 140.443 214.514,140.877 213.953,140.779 213.865 C 140.680 213.777,140.165 214.267,139.634 214.953 M156.093 239.600 C 156.093 240.370,156.175 240.685,156.276 240.300 C 156.376 239.915,156.376 239.285,156.276 238.900 C 156.175 238.515,156.093 238.830,156.093 239.600 M156.493 246.400 C 156.493 247.170,156.575 247.485,156.676 247.100 C 156.776 246.715,156.776 246.085,156.676 245.700 C 156.575 245.315,156.493 245.630,156.493 246.400 M112.909 256.800 C 112.909 257.790,112.987 258.195,113.082 257.700 C 113.178 257.205,113.178 256.395,113.082 255.900 C 112.987 255.405,112.909 255.810,112.909 256.800 M272.109 262.000 C 272.109 262.990,272.187 263.395,272.282 262.900 C 272.378 262.405,272.378 261.595,272.282 261.100 C 272.187 260.605,272.109 261.010,272.109 262.000 M272.109 270.000 C 272.109 270.990,272.187 271.395,272.282 270.900 C 272.378 270.405,272.378 269.595,272.282 269.100 C 272.187 268.605,272.109 269.010,272.109 270.000 M56.493 273.200 C 56.493 273.970,56.575 274.285,56.676 273.900 C 56.776 273.515,56.776 272.885,56.676 272.500 C 56.575 272.115,56.493 272.430,56.493 273.200 M56.501 293.000 C 56.505 293.880,56.587 294.193,56.683 293.695 C 56.779 293.198,56.775 292.478,56.675 292.095 C 56.575 291.713,56.496 292.120,56.501 293.000 M319.755 298.200 C 319.756 301.060,319.820 302.178,319.897 300.683 C 319.974 299.189,319.974 296.849,319.896 295.483 C 319.818 294.118,319.755 295.340,319.755 298.200 M166.400 303.325 C 166.400 303.394,166.985 303.979,167.700 304.625 L 169.000 305.800 167.825 304.500 C 166.730 303.288,166.400 303.016,166.400 303.325 M245.375 330.100 L 244.200 331.400 245.500 330.225 C 246.215 329.579,246.800 328.994,246.800 328.925 C 246.800 328.616,246.470 328.888,245.375 330.100 M180.900 356.276 C 181.285 356.376,181.915 356.376,182.300 356.276 C 182.685 356.175,182.370 356.093,181.600 356.093 C 180.830 356.093,180.515 356.175,180.900 356.276 M188.900 356.276 C 189.285 356.376,189.915 356.376,190.300 356.276 C 190.685 356.175,190.370 356.093,189.600 356.093 C 188.830 356.093,188.515 356.175,188.900 356.276 M162.100 387.476 C 162.485 387.576,163.115 387.576,163.500 387.476 C 163.885 387.375,163.570 387.293,162.800 387.293 C 162.030 387.293,161.715 387.375,162.100 387.476 M192.300 387.482 C 192.795 387.578,193.605 387.578,194.100 387.482 C 194.595 387.387,194.190 387.309,193.200 387.309 C 192.210 387.309,191.805 387.387,192.300 387.482 M168.691 387.889 C 169.401 387.977,170.661 387.979,171.491 387.892 C 172.321 387.805,171.740 387.733,170.200 387.731 C 168.660 387.729,167.981 387.800,168.691 387.889 M182.500 387.891 C 183.325 387.978,184.675 387.978,185.500 387.891 C 186.325 387.805,185.650 387.734,184.000 387.734 C 182.350 387.734,181.675 387.805,182.500 387.891 " stroke="none" fill="#90846c" fill-rule="evenodd"></path><path id="path6" d="M242.305 14.683 C 242.802 14.779,243.522 14.775,243.905 14.675 C 244.287 14.575,243.880 14.496,243.000 14.501 C 242.120 14.505,241.807 14.587,242.305 14.683 M248.100 15.094 C 249.145 15.176,250.855 15.176,251.900 15.094 C 252.945 15.012,252.090 14.944,250.000 14.944 C 247.910 14.944,247.055 15.012,248.100 15.094 M258.307 15.490 C 259.026 15.579,260.106 15.577,260.707 15.486 C 261.308 15.395,260.720 15.322,259.400 15.324 C 258.080 15.326,257.588 15.401,258.307 15.490 M269.500 15.889 C 270.215 15.978,271.385 15.978,272.100 15.889 C 272.815 15.801,272.230 15.728,270.800 15.728 C 269.370 15.728,268.785 15.801,269.500 15.889 M106.200 30.800 C 107.059 31.680,107.852 32.400,107.962 32.400 C 108.072 32.400,107.459 31.680,106.600 30.800 C 105.741 29.920,104.948 29.200,104.838 29.200 C 104.728 29.200,105.341 29.920,106.200 30.800 M168.505 33.487 C 169.114 33.579,170.014 33.577,170.505 33.482 C 170.997 33.387,170.500 33.311,169.400 33.314 C 168.300 33.317,167.897 33.395,168.505 33.487 M177.300 33.487 C 177.905 33.578,178.895 33.578,179.500 33.487 C 180.105 33.395,179.610 33.320,178.400 33.320 C 177.190 33.320,176.695 33.395,177.300 33.487 M116.400 41.400 C 117.595 42.610,118.663 43.600,118.773 43.600 C 118.883 43.600,117.995 42.610,116.800 41.400 C 115.605 40.190,114.537 39.200,114.427 39.200 C 114.317 39.200,115.205 40.190,116.400 41.400 M151.200 77.400 C 152.617 78.830,153.867 80.000,153.977 80.000 C 154.087 80.000,153.017 78.830,151.600 77.400 C 150.183 75.970,148.933 74.800,148.823 74.800 C 148.713 74.800,149.783 75.970,151.200 77.400 M37.749 75.619 C 36.813 75.970,35.461 77.697,35.026 79.100 C 34.872 79.595,34.607 80.000,34.436 80.000 C 34.266 80.000,33.902 80.749,33.628 81.664 C 33.354 82.578,32.706 83.999,32.188 84.820 C 31.669 85.640,31.333 86.400,31.441 86.508 C 31.548 86.615,31.109 87.597,30.464 88.691 C 29.820 89.784,29.159 91.098,28.996 91.612 C 28.833 92.125,28.363 93.097,27.952 93.772 C 26.859 95.564,26.984 96.377,28.394 96.659 C 29.050 96.790,29.487 97.060,29.364 97.259 C 29.241 97.457,29.289 97.581,29.470 97.534 C 30.087 97.373,32.596 98.104,33.994 98.853 C 34.761 99.264,35.671 99.600,36.018 99.600 C 36.364 99.600,36.996 99.864,37.424 100.187 C 37.851 100.510,38.443 100.780,38.740 100.787 C 39.036 100.794,39.846 101.067,40.540 101.394 C 47.706 104.770,54.800 104.554,54.800 100.959 C 54.800 100.651,54.991 100.400,55.224 100.400 C 55.457 100.400,55.544 100.232,55.417 100.028 C 55.291 99.823,55.373 99.540,55.600 99.400 C 55.827 99.260,55.909 98.977,55.783 98.772 C 55.656 98.568,55.729 98.400,55.945 98.400 C 56.160 98.400,56.462 97.815,56.615 97.100 C 56.769 96.385,57.003 95.620,57.136 95.400 C 57.471 94.845,57.532 94.594,58.157 91.200 C 58.461 89.550,58.911 87.660,59.159 87.000 C 59.843 85.172,59.924 81.374,59.276 81.508 C 58.987 81.568,58.267 81.370,57.676 81.068 C 56.568 80.504,53.958 79.574,50.800 78.619 C 49.810 78.320,48.010 77.767,46.800 77.391 C 45.590 77.014,43.340 76.513,41.800 76.276 C 40.260 76.040,38.910 75.724,38.800 75.574 C 38.690 75.423,38.217 75.444,37.749 75.619 M164.000 90.600 C 164.746 91.370,165.447 92.000,165.557 92.000 C 165.667 92.000,165.146 91.370,164.400 90.600 C 163.654 89.830,162.953 89.200,162.843 89.200 C 162.733 89.200,163.254 89.830,164.000 90.600 M205.300 115.087 C 205.905 115.178,206.895 115.178,207.500 115.087 C 208.105 114.995,207.610 114.920,206.400 114.920 C 205.190 114.920,204.695 114.995,205.300 115.087 M130.575 134.500 L 129.400 135.800 130.700 134.625 C 131.912 133.530,132.184 133.200,131.875 133.200 C 131.806 133.200,131.221 133.785,130.575 134.500 M118.800 146.200 C 117.828 147.190,117.123 148.000,117.233 148.000 C 117.343 148.000,118.228 147.190,119.200 146.200 C 120.172 145.210,120.877 144.400,120.767 144.400 C 120.657 144.400,119.772 145.210,118.800 146.200 M154.786 197.500 L 152.600 199.800 154.900 197.614 C 157.037 195.582,157.383 195.200,157.086 195.200 C 157.024 195.200,155.989 196.235,154.786 197.500 M95.350 269.800 C 95.351 272.220,95.416 273.158,95.496 271.885 C 95.576 270.612,95.575 268.632,95.494 267.485 C 95.414 266.338,95.349 267.380,95.350 269.800 M56.528 276.800 C 56.528 278.230,56.601 278.815,56.689 278.100 C 56.778 277.385,56.778 276.215,56.689 275.500 C 56.601 274.785,56.528 275.370,56.528 276.800 M56.528 289.200 C 56.528 290.630,56.601 291.215,56.689 290.500 C 56.778 289.785,56.778 288.615,56.689 287.900 C 56.601 287.185,56.528 287.770,56.528 289.200 M119.200 326.200 C 121.060 328.070,122.672 329.600,122.782 329.600 C 122.892 329.600,121.460 328.070,119.600 326.200 C 117.740 324.330,116.128 322.800,116.018 322.800 C 115.908 322.800,117.340 324.330,119.200 326.200 M297.178 357.500 L 295.800 359.000 297.300 357.622 C 298.696 356.338,298.984 356.000,298.678 356.000 C 298.612 356.000,297.937 356.675,297.178 357.500 M164.500 387.476 C 164.885 387.576,165.515 387.576,165.900 387.476 C 166.285 387.375,165.970 387.293,165.200 387.293 C 164.430 387.293,164.115 387.375,164.500 387.476 M189.505 387.483 C 190.002 387.579,190.722 387.575,191.105 387.475 C 191.487 387.375,191.080 387.296,190.200 387.301 C 189.320 387.305,189.007 387.387,189.505 387.483 M174.915 387.896 C 176.188 387.976,178.168 387.975,179.315 387.894 C 180.462 387.814,179.420 387.749,177.000 387.750 C 174.580 387.751,173.642 387.816,174.915 387.896 " stroke="none" fill="#82a5b7" fill-rule="evenodd"></path><path id="path7" d="M245.100 14.682 C 245.595 14.778,246.405 14.778,246.900 14.682 C 247.395 14.587,246.990 14.509,246.000 14.509 C 245.010 14.509,244.605 14.587,245.100 14.682 M254.300 15.082 C 254.795 15.178,255.605 15.178,256.100 15.082 C 256.595 14.987,256.190 14.909,255.200 14.909 C 254.210 14.909,253.805 14.987,254.300 15.082 M262.505 15.487 C 263.114 15.579,264.014 15.577,264.505 15.482 C 264.997 15.387,264.500 15.311,263.400 15.314 C 262.300 15.317,261.897 15.395,262.505 15.487 M172.291 33.489 C 173.001 33.577,174.261 33.579,175.091 33.492 C 175.921 33.405,175.340 33.333,173.800 33.331 C 172.260 33.329,171.581 33.400,172.291 33.489 M58.649 88.215 C 58.512 88.573,58.416 89.256,58.436 89.733 C 58.462 90.347,58.585 90.208,58.859 89.256 C 59.257 87.872,59.094 87.058,58.649 88.215 M26.926 95.569 C 26.967 96.101,27.270 96.610,27.600 96.699 C 27.996 96.806,28.046 96.749,27.746 96.530 C 27.497 96.349,27.193 95.840,27.072 95.400 C 26.899 94.769,26.868 94.805,26.926 95.569 " stroke="none" fill="#748c9e" fill-rule="evenodd"></path><path id="path8" d="M130.400 0.541 C 130.400 0.656,130.940 1.342,131.600 2.064 C 132.260 2.787,132.800 3.203,132.800 2.988 C 132.800 2.773,132.260 2.088,131.600 1.465 C 130.940 0.842,130.400 0.426,130.400 0.541 M233.626 1.369 C 233.239 1.835,233.302 1.898,233.977 1.722 C 234.430 1.604,234.800 1.348,234.800 1.153 C 234.800 0.614,234.154 0.732,233.626 1.369 M229.461 3.261 C 228.175 3.918,227.193 4.526,227.279 4.612 C 227.539 4.872,229.200 4.330,229.200 3.985 C 229.200 3.808,229.725 3.548,230.367 3.407 C 231.008 3.266,231.633 2.892,231.754 2.576 C 231.876 2.259,231.936 2.015,231.887 2.033 C 231.839 2.052,230.748 2.604,229.461 3.261 M225.500 5.076 C 225.115 5.176,224.800 5.425,224.800 5.629 C 224.800 6.195,225.586 6.071,226.257 5.400 C 226.865 4.792,226.759 4.747,225.500 5.076 M211.800 11.228 L 210.200 12.030 211.600 11.765 C 212.370 11.619,213.090 11.369,213.200 11.210 C 213.310 11.050,213.670 10.817,214.000 10.692 C 214.533 10.489,214.533 10.461,214.000 10.445 C 213.670 10.435,212.680 10.788,211.800 11.228 M144.400 11.200 C 144.400 11.420,144.565 11.600,144.767 11.600 C 144.969 11.600,145.464 11.714,145.867 11.854 C 146.511 12.077,146.503 12.030,145.800 11.467 C 144.873 10.724,144.400 10.633,144.400 11.200 M118.700 12.682 C 119.195 12.778,120.005 12.778,120.500 12.682 C 120.995 12.587,120.590 12.509,119.600 12.509 C 118.610 12.509,118.205 12.587,118.700 12.682 M248.700 14.689 C 249.415 14.778,250.585 14.778,251.300 14.689 C 252.015 14.601,251.430 14.528,250.000 14.528 C 248.570 14.528,247.985 14.601,248.700 14.689 M257.900 15.089 C 258.615 15.178,259.785 15.178,260.500 15.089 C 261.215 15.001,260.630 14.928,259.200 14.928 C 257.770 14.928,257.185 15.001,257.900 15.089 M266.307 15.490 C 267.026 15.579,268.106 15.577,268.707 15.486 C 269.308 15.395,268.720 15.322,267.400 15.324 C 266.080 15.326,265.588 15.401,266.307 15.490 M186.800 18.400 C 186.315 18.714,186.372 18.789,187.100 18.794 C 187.595 18.797,188.000 18.620,188.000 18.400 C 188.000 17.899,187.576 17.899,186.800 18.400 M167.700 33.076 C 168.085 33.176,168.715 33.176,169.100 33.076 C 169.485 32.975,169.170 32.893,168.400 32.893 C 167.630 32.893,167.315 32.975,167.700 33.076 M179.105 33.083 C 179.602 33.179,180.322 33.175,180.705 33.075 C 181.087 32.975,180.680 32.896,179.800 32.901 C 178.920 32.905,178.607 32.987,179.105 33.083 M117.983 43.300 C 119.641 45.066,120.000 45.384,120.000 45.083 C 120.000 45.019,119.145 44.164,118.100 43.183 L 116.200 41.400 117.983 43.300 M129.600 55.400 C 130.795 56.610,131.863 57.600,131.973 57.600 C 132.083 57.600,131.195 56.610,130.000 55.400 C 128.805 54.190,127.737 53.200,127.627 53.200 C 127.517 53.200,128.405 54.190,129.600 55.400 M141.400 67.600 C 142.259 68.480,143.052 69.200,143.162 69.200 C 143.272 69.200,142.659 68.480,141.800 67.600 C 140.941 66.720,140.148 66.000,140.038 66.000 C 139.928 66.000,140.541 66.720,141.400 67.600 M166.200 93.200 C 167.283 94.300,168.260 95.200,168.370 95.200 C 168.480 95.200,167.683 94.300,166.600 93.200 C 165.517 92.100,164.540 91.200,164.430 91.200 C 164.320 91.200,165.117 92.100,166.200 93.200 M179.780 101.178 C 179.571 101.386,178.320 101.622,177.000 101.702 L 174.600 101.849 177.051 101.924 C 178.814 101.979,179.642 101.832,180.000 101.400 C 180.547 100.740,180.385 100.576,179.780 101.178 M203.700 114.676 C 204.085 114.776,204.715 114.776,205.100 114.676 C 205.485 114.575,205.170 114.493,204.400 114.493 C 203.630 114.493,203.315 114.575,203.700 114.676 M129.500 122.693 C 130.435 122.777,131.965 122.777,132.900 122.693 C 133.835 122.609,133.070 122.540,131.200 122.540 C 129.330 122.540,128.565 122.609,129.500 122.693 M245.700 126.691 C 246.525 126.778,247.875 126.778,248.700 126.691 C 249.525 126.605,248.850 126.534,247.200 126.534 C 245.550 126.534,244.875 126.605,245.700 126.691 M129.385 135.300 L 127.400 137.400 129.500 135.415 C 130.655 134.323,131.600 133.378,131.600 133.315 C 131.600 133.017,131.229 133.349,129.385 135.300 M119.600 145.000 C 118.628 145.990,117.923 146.800,118.033 146.800 C 118.143 146.800,119.028 145.990,120.000 145.000 C 120.972 144.010,121.677 143.200,121.567 143.200 C 121.457 143.200,120.572 144.010,119.600 145.000 M155.781 196.100 L 154.200 197.800 155.900 196.219 C 157.481 194.748,157.784 194.400,157.481 194.400 C 157.416 194.400,156.651 195.165,155.781 196.100 M124.975 197.700 L 123.800 199.000 125.100 197.825 C 126.312 196.730,126.584 196.400,126.275 196.400 C 126.206 196.400,125.621 196.985,124.975 197.700 M137.178 217.500 L 135.800 219.000 137.300 217.622 C 138.696 216.338,138.984 216.000,138.678 216.000 C 138.612 216.000,137.937 216.675,137.178 217.500 M56.165 283.000 C 56.166 286.960,56.226 288.526,56.298 286.480 C 56.371 284.434,56.371 281.194,56.298 279.280 C 56.224 277.366,56.165 279.040,56.165 283.000 M319.693 292.000 C 319.693 292.770,319.775 293.085,319.876 292.700 C 319.976 292.315,319.976 291.685,319.876 291.300 C 319.775 290.915,319.693 291.230,319.693 292.000 M319.693 304.400 C 319.693 305.170,319.775 305.485,319.876 305.100 C 319.976 304.715,319.976 304.085,319.876 303.700 C 319.775 303.315,319.693 303.630,319.693 304.400 M184.100 356.291 C 184.925 356.378,186.275 356.378,187.100 356.291 C 187.925 356.205,187.250 356.134,185.600 356.134 C 183.950 356.134,183.275 356.205,184.100 356.291 M165.100 387.882 C 165.595 387.978,166.405 387.978,166.900 387.882 C 167.395 387.787,166.990 387.709,166.000 387.709 C 165.010 387.709,164.605 387.787,165.100 387.882 M187.700 387.887 C 188.305 387.978,189.295 387.978,189.900 387.887 C 190.505 387.795,190.010 387.720,188.800 387.720 C 187.590 387.720,187.095 387.795,187.700 387.887 " stroke="none" fill="#6c6c6c" fill-rule="evenodd"></path></g></svg>