<svg id="Layer_1" data-name="Layer 1" xmlns="http://www.w3.org/2000/svg" viewBox="0 0 3129.98 3622.25"><defs><style>.cls-1{fill:#4c3a30;}.cls-2{fill:#fdfdfd;}.cls-3{fill:#feca00;}.cls-4{fill:#64e16b;}.cls-5{fill:#fe8a0b;}.cls-6{fill:#e3b009;}.cls-7{fill:#b6e0fc;}.cls-8{fill:#96d1f8;}.cls-9{fill:#fcfdfd;}.cls-10{fill:#fdfdfc;}.cls-11{fill:#e7b201;}.cls-12{fill:#fbc801;}</style></defs><path class="cls-1" d="M2167.62,0c604.56,242.33-123.9,328.62-68.81,520.7,15.78,55-99.83,147.73-155.19,223.15,78.74-10.33,160.15-37.86,235.45-26.13,74.06,11.54,141.9,62.92,212.47,96.82-21.78,28.62-46.24,82.45-64.75,80.47-35.59-3.8-70.83-61.61-100.88-57.55-118.69,16-235.37,47.14-352.54,73.8-6.2,1.41-10,13.29-15,20.3,16.54,4.33,33.14,8.41,49.59,13,191.29,53.84,384.5,102.19,571.9,167.24,30.64,10.63,35.68,95,52.55,145.28-38.3-17.9-74.89-43.34-115.18-52.5C2154,1144.8,1891,1048.37,1625.73,1040.76,1257.63,1030.21,527.08,506,470.14,135.31,465.11,102.55,617,45.67,696.06,0h226.4c327,299.23,654,166,981,0ZM1376.77,920.45c240.84-193.64,484.59-383.83,720.43-583.37,58.14-49.19,90.53-128.81,134.76-194.44l-293.91-12.76c-357,154-712.54,297.17-1069.17-6.89-25-21.32-89.6,3.8-135.79,7.32L626,152.88c18.69,30.55,32.63,65.66,56.84,90.94,216.75,226.33,435.32,450.93,653.35,676Z"/><path class="cls-2" d="M1903.49,0c-327,166-654,299.23-981,0Z"/><path class="cls-3" d="M1699.49,1664l127.93,43.46L1906.23,1919q-1.41,483.75-2.81,967.49L1207,3064.91c-459.88-430.71-480.45-867.29-17.48-1310.32Zm89.91,583.36c-70.27-104.58-102.48-196.05-166.83-236.92-75.2-47.76-177.46-61-269.91-70.48-53.68-5.51-113.8,19.88-165.46,43.51-17.94,8.21-28.67,53.75-26.49,80.94,16.83,209.66,12.49,426.05,68.43,625.27,25.75,91.7,170.5,151.6,265.41,220.23,11.82,8.55,65.49-11.8,71.84-29C1643.67,2671.13,1715.71,2459.43,1789.4,2247.4Z"/><path class="cls-1" d="M1343.23,3622.25C950.52,3553.88,337,3699.58,187,3017,20.62,2260,319.9,1634.18,875.43,1121c21.19-19.58,69.35-10,104.94-13.94-12.82,35.87-15.35,82.53-40,106-490,467.3-793,1032.07-634.37,1706.22,51.56,219.11,367.84,447.61,611.26,530.95,276.56,94.67,609.64,59,913.74,31.41,713.95-64.82,988.05-540.54,714.5-1315.18-117-331.21-367.83-615-555.75-921.58-18-29.33-21-67.85-30.89-102.1,35.34,4.51,83.51-4.33,104.16,15.49,518.71,497.71,766.08,1097.2,639.76,1817.84C2620.29,3446.91,2257.5,3622.42,1343.23,3622.25Z"/><path class="cls-1" d="M1699.49,1664l-509.94,90.55c-147.83,197-429.75,407.74-411.22,587.56,26.07,253,275.05,482.95,428.7,722.76l696.39-178.47c273.56-321.71,273.14-644.21,2.81-967.49l-78.81-211.45,226,169.91c217.76,359.59,234.54,714.41-25.2,1062.68C1733.75,3240,1387.54,3323.43,1026.1,3102.25,630,2859.83,518.51,2480.74,705.56,2059.13c172-387.78,498.6-536,920.24-447.27C1652.83,1617.55,1675,1646.11,1699.49,1664Z"/><path class="cls-4" d="M0,869c57.21-110.54,80.29-182.59,96.17-181,67.84,6.64,133.55,35,200,55.46-20.91,66.14-23.75,156.83-68.89,190.06C195.55,956.83,106.27,902.11,0,869Z"/><path class="cls-5" d="M3098.5,3382.08,2869.61,3330c19.5-66,21.08-166.73,63.36-188.51,45.51-23.45,133.33,19.31,193,51.23C3139.82,3200.09,3114.39,3280.85,3098.5,3382.08Z"/><path class="cls-6" d="M2028.21,2940.09c259.74-348.27,243-703.09,25.2-1062.68C2346.71,2147.06,2332.52,2745.54,2028.21,2940.09Z"/><path class="cls-7" d="M733.09,130.31c46.19-3.52,110.79-28.64,135.79-7.32C1225.51,427.05,1581.09,283.9,1938,129.88l160.52,37.32L1376.77,920.45l-40.54-.59Z"/><path class="cls-8" d="M1376.77,920.45,2098.56,167.2,1938,129.88,2232,142.64c-44.23,65.63-76.62,145.25-134.76,194.44C1861.36,536.62,1617.61,726.81,1376.77,920.45Z"/><path class="cls-9" d="M733.09,130.31l603.14,789.55c-218-225.11-436.6-449.71-653.35-676-24.21-25.28-38.15-60.39-56.84-90.94Z"/><path class="cls-1" d="M1789.4,2247.4c-73.69,212-145.73,423.73-223,633.5-6.35,17.25-60,37.6-71.84,29-94.91-68.63-239.66-128.53-265.41-220.23-55.94-199.22-51.6-415.61-68.43-625.27-2.18-27.19,8.55-72.73,26.49-80.94,51.66-23.63,111.78-49,165.46-43.51,92.45,9.51,194.71,22.72,269.91,70.48C1686.92,2051.35,1719.13,2142.82,1789.4,2247.4Zm-538.26,341c101.17,67.68,153.07,127.92,185.42,118.8,70.63-19.92,131.32-75.09,196.07-115.86-66.55-44.44-128.81-100.87-201.9-127C1403.85,2454.67,1351.38,2516.53,1251.14,2588.4Zm-14.93-382.64c115.62,78.08,168.37,138.9,198.9,129.27,71.55-22.57,132.45-78.87,197.67-121.52-61.63-40-119.08-94.33-186.64-114.16C1411.54,2089.19,1358.83,2140.68,1236.21,2205.76Z"/><path class="cls-10" d="M1207,3064.91c-153.65-239.81-402.63-469.8-428.7-722.76-18.53-179.82,263.39-390.6,411.22-587.56C726.58,2197.62,747.15,2634.2,1207,3064.91Z"/><path class="cls-11" d="M1906.23,1919c270.33,323.28,270.75,645.78-2.81,967.49Q1904.83,2402.69,1906.23,1919Z"/><path class="cls-12" d="M1251.14,2588.4c100.24-71.87,152.71-133.73,179.59-124.1,73.09,26.17,135.35,82.6,201.9,127-64.75,40.77-125.44,95.94-196.07,115.86C1404.21,2716.32,1352.31,2656.08,1251.14,2588.4Z"/><path class="cls-3" d="M1236.21,2205.76c122.62-65.08,175.33-116.57,209.93-106.41,67.56,19.83,125,74.13,186.64,114.16-65.22,42.65-126.12,98.95-197.67,121.52C1404.58,2344.66,1351.83,2283.84,1236.21,2205.76Z"/></svg>