<?xml version="1.0" standalone="no"?>
<!DOCTYPE svg PUBLIC "-//W3C//DTD SVG 20010904//EN"
 "http://www.w3.org/TR/2001/REC-SVG-20010904/DTD/svg10.dtd">
<svg version="1.0" xmlns="http://www.w3.org/2000/svg"
 width="1068.000000pt" height="1068.000000pt" viewBox="0 0 1068.000000 1068.000000"
 preserveAspectRatio="xMidYMid meet">
<metadata>
Created by potrace 1.14, written by Peter Selinger 2001-2017
</metadata>
<g transform="translate(0.000000,1068.000000) scale(0.100000,-0.100000)"
fill="#000000" stroke="none">
<path d="M6027 9544 c-1 -1 -60 -4 -132 -8 -71 -3 -139 -7 -150 -10 -11 -2
-40 -7 -65 -10 -60 -8 -77 -12 -130 -27 -25 -7 -47 -13 -50 -13 -19 -3 -134
-67 -192 -106 -56 -39 -83 -51 -138 -60 -76 -13 -347 -15 -510 -5 -58 4 -132
9 -165 10 -93 5 -338 25 -380 31 -108 15 -239 19 -298 10 -95 -15 -164 -71
-170 -136 -1 -3 -8 -13 -18 -23 -17 -18 -35 -19 -576 -3 -57 2 -83 -1 -83 -9
0 -7 28 -39 63 -72 78 -75 204 -208 282 -297 33 -38 65 -74 70 -80 88 -95 307
-390 360 -483 8 -15 24 -41 35 -58 36 -56 166 -329 209 -440 24 -60 47 -119
51 -130 4 -11 27 -69 50 -130 62 -162 127 -292 178 -360 41 -54 46 -66 49
-122 2 -58 1 -63 -18 -63 -11 0 -18 -4 -15 -9 4 -5 -2 -8 -11 -7 -22 4 -74
-14 -69 -22 2 -4 -12 -7 -32 -7 -21 0 -49 -5 -63 -12 -14 -7 -35 -14 -48 -16
-12 -2 -26 -8 -29 -13 -6 -8 -14 -10 -64 -16 -10 -1 -18 -6 -18 -10 0 -4 -9
-8 -20 -8 -11 0 -20 -4 -20 -9 0 -6 -9 -8 -20 -6 -11 2 -20 1 -20 -3 0 -4 -15
-13 -32 -20 -18 -7 -48 -20 -66 -28 -18 -8 -37 -14 -43 -14 -15 0 -39 -26 -31
-34 3 -4 -1 -4 -11 0 -10 3 -28 -1 -42 -10 -14 -9 -25 -14 -25 -11 0 3 -18 -6
-40 -20 -22 -14 -44 -25 -50 -25 -5 0 -10 -4 -10 -10 0 -5 -3 -10 -7 -9 -16 2
-53 -14 -53 -22 0 -5 -7 -9 -15 -9 -9 0 -18 -7 -21 -15 -4 -8 -10 -13 -14 -10
-4 2 -26 -9 -49 -25 -22 -17 -41 -27 -41 -24 0 4 -8 -3 -19 -14 -10 -12 -23
-22 -30 -22 -6 0 -11 -4 -11 -10 0 -5 -7 -10 -15 -10 -8 0 -15 -4 -15 -9 0 -5
-8 -12 -17 -15 -10 -4 -32 -19 -49 -34 -72 -63 -83 -70 -88 -65 -6 6 -10 -12
-7 -29 0 -4 -5 -5 -12 -2 -14 5 -64 -45 -59 -59 1 -5 -1 -6 -6 -3 -5 3 -27
-13 -50 -34 -23 -22 -39 -40 -36 -40 2 0 -19 -22 -47 -49 -28 -27 -48 -54 -45
-60 5 -7 1 -9 -8 -5 -9 3 -16 2 -16 -2 0 -5 -15 -26 -33 -46 -17 -20 -41 -48
-52 -63 -11 -14 -25 -31 -30 -38 -43 -51 -213 -305 -235 -352 -8 -16 -17 -32
-20 -35 -3 -3 -10 -20 -17 -37 -8 -25 -8 -33 0 -33 8 0 8 -3 2 -8 -13 -9 -15
-82 -2 -82 5 0 4 -6 -2 -14 -8 -9 -8 -16 -2 -20 5 -4 8 -15 6 -26 -2 -11 -1
-20 3 -20 12 0 2 -226 -11 -248 -5 -6 -5 -12 0 -12 4 0 8 -13 8 -29 0 -16 -4
-27 -9 -24 -5 3 -7 -8 -4 -25 2 -17 1 -29 -4 -26 -4 3 -8 2 -9 -3 0 -4 -3 -24
-6 -43 -3 -19 -6 -43 -6 -52 -1 -10 -5 -18 -9 -18 -4 0 -7 -8 -7 -17 -1 -35
-13 -79 -30 -113 -4 -8 -7 -25 -6 -37 1 -12 -5 -25 -12 -28 -8 -2 -12 -8 -9
-13 2 -4 -6 -46 -19 -92 -24 -86 -36 -135 -37 -157 -1 -7 -4 -13 -7 -13 -4 0
-6 -12 -5 -28 1 -15 -2 -31 -6 -37 -4 -5 -7 -17 -8 -25 0 -8 -3 -35 -7 -60 -4
-25 -8 -54 -9 -65 -1 -11 -4 -24 -7 -30 -3 -5 -5 -24 -4 -42 0 -18 -3 -29 -9
-26 -5 4 -7 0 -4 -9 3 -8 3 -33 -2 -56 -5 -29 -4 -40 4 -35 6 4 3 -2 -6 -13
-11 -13 -14 -24 -8 -34 5 -8 5 -19 0 -25 -10 -12 -8 -34 4 -54 6 -10 5 -12 -2
-7 -8 5 -12 -5 -13 -31 -2 -78 -4 -98 -13 -112 -6 -9 -5 -12 1 -8 10 6 10 -31
0 -105 -3 -16 0 -28 5 -28 5 0 5 -6 0 -16 -5 -9 -6 -34 -2 -55 4 -21 4 -39 -1
-39 -4 0 -5 -10 -3 -23 3 -12 7 -61 8 -109 2 -49 6 -91 9 -95 4 -3 2 -12 -4
-20 -6 -7 -7 -13 -2 -13 5 0 8 -20 7 -45 -1 -25 2 -48 7 -50 4 -3 4 -16 -1
-29 -5 -15 -5 -27 3 -35 8 -8 8 -11 -1 -11 -9 0 -10 -5 -2 -19 7 -14 7 -22 0
-26 -6 -4 -7 -11 -4 -17 10 -16 11 -108 1 -108 -4 0 -3 -8 2 -19 6 -10 7 -22
3 -25 -4 -4 -7 -32 -8 -62 0 -30 -4 -57 -7 -61 -4 -3 -1 -13 6 -21 6 -9 7 -13
1 -9 -7 4 -11 -6 -12 -28 -1 -19 -9 -65 -18 -102 -9 -37 -17 -75 -18 -83 -1
-8 -7 -24 -13 -35 -6 -11 -11 -22 -11 -25 -1 -12 -23 -67 -38 -92 -8 -16 -13
-28 -10 -28 3 0 -1 -12 -9 -27 -11 -21 -12 -30 -2 -42 9 -12 9 -13 0 -7 -7 4
-13 3 -13 -3 0 -5 -3 -17 -7 -27 -5 -13 -3 -15 7 -9 10 6 11 4 4 -6 -14 -23
-11 -101 4 -107 11 -4 11 -7 2 -12 -8 -5 -9 -13 -4 -21 5 -8 9 -18 9 -24 2
-23 38 -95 48 -95 6 0 8 -3 4 -6 -6 -6 1 -17 36 -55 9 -10 17 -23 17 -29 0 -5
5 -10 10 -10 6 0 10 -5 10 -10 0 -11 1 -12 115 -134 77 -82 80 -85 100 -68 19
16 19 16 5 -1 -12 -17 -10 -22 24 -53 20 -19 39 -34 42 -34 2 0 12 -8 22 -18
38 -35 60 -50 66 -45 3 4 6 1 6 -6 0 -8 8 -11 19 -8 14 3 18 1 14 -9 -3 -8 1
-14 11 -14 9 0 16 -4 16 -10 0 -5 7 -10 15 -10 8 0 15 -5 15 -11 0 -6 9 -9 20
-6 12 3 17 1 14 -5 -3 -5 3 -12 15 -15 12 -3 21 -10 21 -15 0 -5 4 -6 10 -3 6
3 10 3 10 -2 0 -13 58 -35 71 -27 8 4 9 3 5 -4 -4 -8 3 -16 18 -22 14 -5 45
-19 68 -30 23 -11 48 -20 55 -20 7 0 13 -5 13 -10 0 -6 3 -9 8 -8 7 3 57 -15
97 -34 12 -5 27 -10 35 -12 16 -3 32 -9 90 -31 32 -13 73 -26 93 -31 4 -1 8
-2 10 -4 1 -1 10 -3 20 -5 10 -2 26 -7 35 -11 9 -4 24 -8 32 -10 49 -9 75 -16
80 -22 3 -4 20 -8 38 -7 17 0 32 -3 32 -7 0 -10 109 -31 126 -24 9 3 12 1 9
-4 -3 -6 -5 -10 -3 -10 51 -7 87 -14 101 -21 12 -7 17 -6 17 3 0 9 3 9 10 -2
5 -8 10 -11 10 -6 0 5 7 3 15 -4 8 -7 15 -9 15 -6 0 4 9 2 20 -4 15 -8 20 -8
20 1 0 8 5 7 17 -2 9 -8 18 -13 20 -11 1 1 4 1 6 1 1 -1 13 -3 27 -4 14 -1 36
-5 50 -9 14 -3 41 -8 60 -9 19 -2 41 -7 49 -11 10 -7 12 -5 6 5 -7 11 -6 12 6
2 15 -13 76 -23 151 -26 27 -1 48 -5 48 -8 0 -4 20 -6 45 -6 25 0 48 -3 52 -6
3 -4 13 -1 21 6 13 10 14 9 7 -2 -6 -11 -3 -13 13 -9 12 4 22 3 22 -1 0 -4 12
-6 28 -6 15 1 36 -2 48 -6 11 -4 27 -3 34 1 9 5 20 4 27 -2 7 -6 26 -8 43 -6
16 3 30 2 30 -1 0 -3 21 -6 48 -5 26 0 51 -2 57 -5 14 -8 74 -8 69 1 -2 3 0
10 6 13 6 4 9 1 8 -7 -3 -15 -1 -15 178 -21 73 -2 137 -8 144 -12 9 -5 11 -4
6 4 -6 8 -1 10 17 6 34 -9 207 -11 207 -3 0 4 14 3 30 -2 21 -6 30 -5 30 3 0
7 4 6 10 -3 8 -12 10 -12 10 -1 0 10 3 11 14 2 10 -8 16 -9 21 -1 3 6 10 8 14
6 11 -7 56 -7 196 -2 66 3 137 5 158 5 28 1 36 4 31 13 -6 10 -4 10 7 2 8 -7
40 -10 79 -8 359 19 534 26 677 28 81 0 133 5 133 11 0 6 4 4 9 -3 11 -17 21
-17 32 0 5 7 9 9 9 3 0 -5 16 -10 35 -10 19 0 35 3 35 8 0 4 9 3 20 -3 11 -6
20 -7 20 -3 0 4 35 7 77 7 48 -1 81 3 85 10 5 8 8 7 8 -2 0 -8 5 -10 12 -6 6
4 30 9 51 10 22 2 44 9 49 16 6 11 8 10 8 0 0 -7 5 -10 11 -6 6 3 28 9 48 11
20 3 38 8 41 12 3 4 12 6 20 6 8 -1 30 5 48 12 18 8 37 11 42 8 6 -4 10 -2 10
4 0 6 16 13 35 17 19 3 35 9 35 13 0 4 8 7 18 8 29 2 73 23 68 31 -3 5 5 8 17
7 21 -2 96 32 108 48 3 5 8 8 10 8 12 -2 49 12 49 18 0 4 16 13 35 21 19 8 35
17 35 22 0 4 7 8 15 8 7 0 19 8 24 18 6 9 11 14 11 9 0 -9 37 13 113 70 31 24
60 43 63 43 3 0 11 6 18 13 7 6 27 23 45 37 94 73 192 170 185 183 -4 7 -4 9
1 5 11 -10 47 11 40 23 -4 5 1 9 9 9 9 0 16 3 16 8 0 4 19 27 43 52 23 25 56
63 72 85 17 22 36 45 44 51 8 6 11 18 8 27 -3 9 -1 19 5 23 7 4 8 3 4 -4 -4
-7 -3 -12 2 -12 9 0 19 16 20 33 0 5 9 15 19 23 10 7 14 14 9 14 -5 0 -3 6 3
14 18 21 21 132 5 153 -7 10 -14 25 -14 33 0 9 -9 22 -20 30 -11 8 -20 22 -20
32 0 21 -10 23 -30 6 -12 -11 -12 -10 -2 4 11 13 9 22 -6 47 -10 17 -22 28
-26 24 -4 -4 -4 0 0 10 4 11 1 17 -7 17 -7 0 -10 3 -6 6 3 4 0 19 -8 35 -8 15
-17 36 -18 46 -2 10 -10 32 -17 48 -15 34 -17 43 -22 102 -2 24 -6 43 -9 43
-6 0 -13 91 -11 150 1 19 -4 41 -11 49 -9 12 -9 13 0 8 15 -9 13 44 -2 55 -7
5 -7 8 0 8 10 0 17 84 19 257 0 55 4 99 9 96 9 -6 9 1 -3 32 -5 14 -6 24 -2
21 7 -4 10 86 13 357 0 21 -5 45 -12 53 -9 12 -9 13 2 9 11 -4 13 6 10 47 -1
29 -8 59 -15 67 -8 12 -8 13 2 7 9 -6 11 12 9 78 -2 48 -7 89 -10 93 -4 3 -2
12 4 20 7 8 7 13 2 13 -6 0 -10 8 -10 18 0 43 -3 53 -15 46 -10 -6 -10 -5 -1
7 12 15 12 39 -1 94 -3 17 -9 40 -11 52 -3 13 -7 33 -10 45 -3 13 -8 39 -11
58 -4 19 -11 43 -16 53 -5 10 -12 31 -14 45 -3 15 -9 29 -13 32 -4 3 -13 25
-21 50 -7 25 -17 49 -22 55 -4 5 -8 17 -8 27 0 10 -5 18 -11 18 -5 0 -8 4 -5
8 3 5 -2 21 -10 36 -7 16 -14 34 -14 41 0 7 -6 16 -12 18 -10 4 -10 6 0 6 8 1
9 6 3 19 -11 19 -25 73 -23 85 1 4 -3 7 -9 7 -5 0 -7 4 -4 10 3 5 1 28 -5 52
-7 23 -13 53 -15 67 -2 14 -4 26 -5 26 -2 0 -9 46 -15 115 -9 88 -11 292 -4
327 5 22 3 31 -4 26 -6 -4 -7 -1 -2 8 10 15 14 89 6 89 -3 0 -7 10 -7 23 -3
45 -8 67 -16 67 -4 0 -8 6 -8 13 0 17 -68 148 -84 162 -6 6 -12 18 -14 29 -2
10 -8 23 -13 30 -5 6 -36 53 -69 104 -33 50 -65 92 -70 92 -6 0 -8 5 -5 10 3
6 1 10 -6 10 -7 0 -9 3 -6 7 4 3 -7 19 -23 35 -16 15 -26 28 -22 28 4 0 3 4
-3 8 -5 4 -27 28 -48 54 -51 64 -67 79 -77 73 -4 -3 -7 3 -6 13 0 10 -6 16
-16 16 -10 -1 -16 2 -13 6 6 10 -38 60 -53 60 -7 0 -11 4 -8 8 6 10 -45 58
-56 54 -5 -1 -8 5 -8 14 0 10 -6 14 -15 10 -8 -3 -14 -2 -12 2 4 14 -80 85
-209 175 -45 31 -87 57 -93 57 -7 0 -10 4 -7 8 2 4 -10 14 -27 22 -18 7 -34
16 -37 19 -8 10 -83 51 -122 67 -21 9 -38 20 -38 25 0 5 -8 9 -18 9 -10 0 -22
3 -26 8 -4 4 -11 7 -14 7 -4 1 -21 9 -39 18 -18 9 -39 17 -48 17 -8 0 -15 5
-15 11 0 6 -9 9 -20 6 -11 -3 -18 -1 -14 4 4 8 -9 11 -32 8 -4 0 -10 4 -13 9
-8 14 -122 53 -132 46 -5 -3 -9 2 -9 11 0 9 -4 13 -10 10 -5 -3 -31 1 -57 10
-27 9 -55 18 -63 20 -8 2 -28 8 -43 14 -16 6 -32 9 -37 6 -5 -3 -11 -1 -15 4
-3 6 -26 13 -50 17 -25 3 -45 10 -45 14 0 4 -8 7 -17 7 -37 0 -44 3 -37 15 4
7 8 34 7 60 0 44 4 53 41 91 23 23 49 56 59 72 30 51 106 212 113 239 3 14 10
26 15 26 5 0 8 3 7 8 -2 8 50 150 62 167 3 6 15 33 25 60 60 166 192 466 207
473 5 2 8 12 8 22 0 10 4 21 9 24 4 3 32 48 62 101 29 52 57 95 61 95 5 0 8 5
8 10 0 9 117 188 131 200 3 3 29 37 58 75 30 39 57 72 62 73 5 2 9 8 9 13 0 9
22 37 75 94 17 18 49 55 71 81 23 27 87 96 143 154 101 104 116 128 84 129
-89 3 -358 0 -393 -3 -58 -7 -172 -15 -282 -21 l-87 -5 -6 37 c-14 87 -18 100
-40 138 -13 22 -32 47 -42 55 -31 25 -73 51 -73 44 0 -4 -6 -2 -12 4 -35 28
-173 50 -363 58 -77 3 -159 6 -183 8 -24 1 -44 1 -45 0z m-1942 -2693 c3 -5 2
-12 -3 -15 -5 -3 -9 1 -9 9 0 17 3 19 12 6z m2819 -177 c3 -8 2 -12 -4 -9 -6
3 -10 10 -10 16 0 14 7 11 14 -7z m1297 -1961 c13 -16 12 -17 -3 -4 -10 7 -18
15 -18 17 0 8 8 3 21 -13z m209 -1509 c0 -8 -19 -13 -24 -6 -3 5 1 9 9 9 8 0
15 -2 15 -3z m-7 -79 c-3 -9 -8 -14 -10 -11 -3 3 -2 9 2 15 9 16 15 13 8 -4z
m161 -1203 c3 -5 -1 -9 -9 -9 -8 0 -12 4 -9 9 3 4 7 8 9 8 2 0 6 -4 9 -8z
m-310 -520 c3 -5 -1 -9 -9 -9 -8 0 -12 4 -9 9 3 4 7 8 9 8 2 0 6 -4 9 -8z
m-124 -158 c0 -8 -19 -13 -24 -6 -3 5 1 9 9 9 8 0 15 -2 15 -3z m-4120 -364
c0 -5 -2 -10 -4 -10 -3 0 -8 5 -11 10 -3 6 -1 10 4 10 6 0 11 -4 11 -10z m721
-77 c13 -16 12 -17 -3 -4 -17 13 -22 21 -14 21 2 0 10 -8 17 -17z m1717 -8
c-3 -3 -9 2 -12 12 -6 14 -5 15 5 6 7 -7 10 -15 7 -18z"/>
</g>
</svg>
