<?xml version="1.0" standalone="no"?>
<!DOCTYPE svg PUBLIC "-//W3C//DTD SVG 20010904//EN"
 "http://www.w3.org/TR/2001/REC-SVG-20010904/DTD/svg10.dtd">
<svg version="1.0" xmlns="http://www.w3.org/2000/svg"
 width="1056.000000pt" height="1056.000000pt" viewBox="0 0 1056.000000 1056.000000"
 preserveAspectRatio="xMidYMid meet">
<metadata>
Created by potrace 1.14, written by Peter Selinger 2001-2017
</metadata>
<g transform="translate(0.000000,1056.000000) scale(0.100000,-0.100000)"
fill="#000000" stroke="none">
<path d="M5907 9814 c-1 -1 -47 -5 -102 -8 -55 -4 -111 -8 -125 -10 -96 -14
-122 -19 -175 -32 -82 -21 -156 -56 -246 -119 -42 -30 -97 -59 -125 -67 -78
-20 -542 -16 -809 8 -27 2 -79 6 -115 9 -115 9 -174 14 -245 21 -113 12 -237
10 -287 -5 -54 -15 -114 -69 -123 -111 -7 -31 -45 -76 -54 -63 -3 4 -67 9
-141 9 -74 1 -217 3 -317 6 -101 3 -183 1 -183 -3 0 -4 53 -61 118 -126 64
-65 153 -159 197 -208 44 -49 85 -95 90 -101 29 -32 102 -120 114 -138 8 -12
21 -25 28 -29 7 -4 13 -14 13 -22 0 -7 4 -15 8 -17 11 -4 153 -196 171 -231 8
-15 18 -27 23 -27 4 0 8 -5 8 -10 0 -6 12 -29 27 -53 42 -65 79 -133 132 -242
46 -95 115 -254 116 -265 0 -3 7 -24 17 -45 9 -22 42 -107 73 -190 32 -82 62
-156 68 -162 5 -7 7 -13 3 -13 -8 0 82 -170 102 -192 8 -10 13 -18 10 -18 -3
0 9 -16 26 -35 28 -30 32 -41 31 -89 0 -62 -8 -74 -51 -82 -16 -2 -36 -7 -44
-11 -8 -3 -19 -7 -25 -7 -5 -1 -37 -10 -70 -21 -33 -10 -64 -20 -70 -21 -5 -1
-26 -7 -45 -15 -19 -7 -38 -12 -42 -11 -5 1 -8 -3 -8 -9 0 -5 -3 -8 -8 -5 -4
2 -23 -3 -42 -11 -19 -9 -39 -17 -45 -18 -10 -1 -47 -17 -130 -54 -22 -10 -50
-22 -62 -25 -13 -4 -23 -12 -23 -17 0 -5 -3 -8 -7 -7 -15 4 -53 -14 -53 -24 0
-6 -3 -9 -6 -5 -6 5 -83 -34 -156 -80 -21 -13 -42 -23 -47 -23 -5 0 -14 -7
-21 -15 -7 -9 -27 -22 -45 -31 -18 -8 -42 -24 -53 -34 -12 -11 -24 -20 -27
-20 -3 0 -11 -5 -18 -10 -7 -6 -46 -37 -87 -69 -41 -32 -87 -70 -103 -84 -15
-14 -27 -24 -27 -21 0 7 -222 -219 -255 -260 -16 -21 -38 -47 -49 -59 -10 -12
-37 -47 -59 -77 -23 -30 -47 -61 -54 -68 -7 -7 -13 -19 -13 -27 0 -7 -7 -16
-16 -19 -9 -4 -15 -9 -12 -12 3 -3 -3 -15 -14 -27 -33 -37 -158 -247 -164
-275 -9 -45 -14 -133 -6 -128 11 7 18 -256 8 -319 -16 -102 -18 -116 -32 -185
-3 -14 -6 -35 -6 -47 -1 -13 -5 -23 -9 -23 -3 0 -9 -19 -13 -42 -4 -23 -11
-47 -17 -54 -5 -7 -9 -16 -8 -20 3 -12 -32 -127 -40 -134 -3 -3 -7 -14 -7 -25
-3 -28 -11 -71 -29 -138 -8 -32 -15 -67 -15 -77 0 -11 -3 -20 -7 -20 -5 0 -8
-12 -9 -27 0 -16 -3 -41 -7 -58 -3 -16 -9 -46 -12 -65 -3 -19 -8 -51 -11 -70
-3 -19 -7 -47 -7 -62 -1 -16 -5 -28 -9 -28 -4 0 -3 -11 2 -25 6 -15 6 -25 0
-25 -5 0 -9 -8 -9 -17 0 -10 -3 -47 -6 -83 -3 -36 -7 -93 -8 -127 -2 -34 -6
-65 -10 -69 -3 -4 -2 -15 4 -25 5 -11 6 -19 1 -19 -5 0 -8 -13 -8 -30 0 -16 4
-30 9 -30 6 0 6 -5 0 -12 -11 -14 -10 -176 2 -363 4 -66 7 -129 7 -140 -1 -11
4 -23 11 -27 7 -4 8 -8 1 -8 -12 0 -12 -159 0 -178 4 -7 3 -12 -1 -12 -5 0 -9
-26 -9 -57 -2 -98 -10 -193 -17 -200 -4 -3 -1 -13 6 -21 9 -13 9 -14 0 -8 -9
5 -13 -1 -14 -21 -1 -27 -4 -43 -8 -53 -1 -3 -5 -16 -8 -30 -7 -38 -11 -55
-13 -57 -2 -2 -3 -6 -4 -10 -18 -68 -40 -123 -48 -123 -6 0 -9 -3 -5 -6 3 -3
-4 -29 -17 -58 -13 -28 -22 -59 -20 -69 1 -9 -1 -17 -5 -17 -4 0 -8 -6 -8 -12
0 -7 -4 -22 -9 -32 -5 -15 -4 -17 6 -11 9 6 11 4 5 -4 -12 -20 -12 -69 0 -65
6 3 12 -9 13 -27 1 -17 7 -40 13 -50 5 -11 7 -19 3 -19 -4 0 0 -8 8 -17 8 -10
21 -33 29 -50 8 -18 17 -33 21 -33 5 0 8 -5 8 -10 0 -12 98 -133 111 -138 5
-2 9 -8 9 -13 0 -5 33 -40 73 -79 96 -94 105 -101 157 -141 25 -19 47 -36 50
-39 14 -14 70 -50 79 -50 5 0 11 -4 13 -8 5 -11 111 -75 126 -75 6 0 12 -4 12
-8 0 -4 12 -12 28 -18 15 -6 34 -15 42 -20 8 -5 38 -19 65 -31 28 -12 61 -28
75 -35 14 -7 27 -13 30 -13 3 -1 18 -5 33 -11 15 -6 39 -14 52 -17 14 -3 25
-10 25 -15 0 -5 8 -9 19 -9 10 0 36 -8 57 -17 22 -9 44 -17 49 -17 9 -1 102
-31 135 -43 8 -3 20 -7 25 -7 6 -1 30 -8 55 -16 61 -18 62 -19 85 -24 11 -2
20 -5 20 -6 0 -1 15 -3 33 -6 18 -2 42 -9 53 -14 10 -6 19 -9 19 -6 0 3 15 0
33 -6 17 -5 50 -12 72 -15 22 -3 45 -9 50 -13 6 -4 18 -6 28 -5 9 2 17 -1 17
-6 0 -4 7 -6 15 -3 8 3 20 2 27 -2 6 -4 25 -9 42 -11 47 -5 75 -11 87 -19 8
-5 9 -3 4 7 -7 11 -6 12 6 2 9 -7 38 -14 65 -17 27 -2 56 -7 64 -10 8 -3 38
-8 65 -10 28 -3 50 -5 50 -6 0 -3 39 -9 95 -15 30 -3 75 -8 100 -11 25 -3 61
-6 82 -8 20 -2 42 -7 49 -11 8 -6 10 -4 4 5 -6 9 -4 11 5 5 7 -4 32 -9 54 -11
23 -2 73 -6 111 -10 39 -3 106 -8 150 -10 174 -7 225 -11 231 -16 3 -3 21 -2
40 2 18 4 34 5 34 1 0 -8 64 -6 78 3 6 3 13 2 16 -2 6 -10 48 -8 65 3 6 3 11
3 11 -2 0 -10 131 -10 147 0 6 4 15 3 18 -3 5 -8 11 -7 21 1 8 6 14 8 14 3 0
-12 133 -12 141 0 4 4 17 3 29 -4 12 -7 20 -8 17 -3 -3 4 41 9 96 9 56 1 149
4 207 8 178 11 299 17 440 22 74 2 165 6 203 8 49 3 65 1 60 -7 -5 -9 -3 -9 8
-1 8 6 64 12 134 12 238 3 346 10 445 26 39 7 157 35 180 44 8 3 20 6 25 7 6
2 42 15 80 29 39 15 70 26 70 26 0 -1 35 14 78 34 42 20 82 36 87 36 6 0 10 5
10 10 0 6 3 9 8 8 4 -1 35 14 70 35 35 20 67 37 73 37 5 0 9 5 9 10 0 6 4 10
10 10 9 0 80 46 90 58 3 4 21 16 40 26 19 11 37 23 40 26 3 4 43 38 90 75 86
69 255 235 320 314 19 23 44 53 55 66 51 61 71 90 88 128 6 15 15 27 19 27 4
0 5 6 2 14 -3 8 0 17 6 21 8 5 7 11 -2 23 -10 12 -10 14 -1 8 9 -5 12 0 11 18
-1 15 -5 26 -9 26 -3 0 -6 6 -6 13 -1 17 -7 41 -13 47 -3 3 -14 21 -24 40 -11
19 -28 43 -37 53 -20 22 -85 148 -81 159 1 4 -2 8 -8 8 -6 0 -9 3 -8 8 2 9
-13 74 -20 87 -4 6 -7 15 -8 20 -4 25 -13 72 -18 94 -3 13 -7 48 -8 77 -2 30
-7 54 -11 54 -5 0 -5 6 0 12 12 21 12 38 0 38 -8 0 -8 3 -2 8 6 4 11 63 12
132 1 69 5 161 8 205 11 142 11 190 0 204 -7 11 -7 13 1 8 8 -5 11 33 11 134
0 77 3 142 6 145 3 4 2 17 -3 30 -5 13 -6 24 -1 24 5 0 6 15 2 33 -5 18 -5 41
-1 52 4 11 5 24 3 28 -3 4 -5 44 -5 87 0 47 -4 80 -10 80 -7 0 -7 5 -1 13 5 6
8 21 6 32 -1 11 -5 43 -8 70 -7 64 -13 112 -20 150 -3 17 -7 41 -9 55 -3 14
-5 25 -7 25 -1 0 -3 9 -5 20 -6 36 -9 50 -17 63 -5 6 -6 12 -3 12 3 0 -4 26
-15 58 -11 31 -22 66 -24 76 -3 11 -9 24 -15 30 -5 5 -10 18 -10 28 0 10 -4
18 -10 18 -5 0 -9 3 -8 8 2 9 -9 46 -27 87 -14 30 -58 171 -60 190 0 6 -4 24
-8 40 -3 17 -9 44 -12 60 -3 17 -7 41 -10 55 -3 14 -8 45 -10 70 -16 155 -16
132 -12 430 1 122 -11 172 -64 266 -12 21 -33 59 -47 84 -13 25 -31 52 -38 61
-8 8 -14 21 -14 27 0 7 -4 12 -10 12 -5 0 -10 5 -10 11 0 12 -60 103 -72 107
-4 2 -8 10 -8 18 0 8 -4 14 -10 14 -5 0 -10 5 -10 11 0 6 -6 16 -12 23 -7 7
-22 25 -33 41 -20 28 -59 75 -105 128 -28 32 -182 186 -232 233 -18 17 -74 61
-123 98 -50 37 -97 73 -105 79 -8 7 -44 30 -80 51 -36 22 -68 44 -71 49 -4 5
-12 6 -18 3 -6 -4 -11 -3 -11 3 0 6 -17 19 -37 29 -21 11 -56 28 -78 40 -74
38 -209 99 -280 125 -38 15 -83 32 -100 38 -16 7 -34 11 -38 10 -5 -1 -23 5
-40 13 -18 8 -45 18 -62 22 -40 10 -44 11 -50 14 -3 1 -9 4 -15 5 -5 1 -11 3
-12 5 -2 1 -10 3 -18 5 -83 20 -120 31 -120 36 0 3 -13 5 -29 4 l-28 -2 2 65
c2 59 5 67 33 91 50 43 101 131 196 344 14 32 26 59 26 62 0 2 5 16 12 32 6
15 12 30 13 33 1 3 5 14 10 25 4 11 26 65 48 120 21 55 44 111 50 125 6 14 11
27 11 30 2 12 79 186 123 277 15 32 45 86 65 121 21 34 38 67 38 72 0 6 3 10
8 10 4 0 14 15 21 33 8 17 20 37 25 44 28 32 36 43 36 48 0 13 200 289 247
340 10 11 38 45 63 75 61 74 97 114 222 244 59 61 108 116 108 122 0 7 -16 14
-36 16 -51 6 -301 2 -419 -7 -55 -4 -118 -9 -140 -10 -22 -1 -71 -5 -110 -9
-38 -3 -75 -2 -81 2 -6 4 -14 32 -18 62 -9 66 -39 131 -79 166 -34 31 -117 70
-167 79 -19 3 -46 8 -60 11 -92 16 -522 39 -533 28z m1140 -3059 c0 -8 -4 -12
-9 -9 -5 3 -6 10 -3 15 9 13 12 11 12 -6z m1083 -1355 c0 -5 -2 -10 -4 -10 -3
0 -8 5 -11 10 -3 6 -1 10 4 10 6 0 11 -4 11 -10z m-2 -85 c-3 -3 -9 2 -12 12
-6 14 -5 15 5 6 7 -7 10 -15 7 -18z m-33 -95 c3 -6 -1 -7 -9 -4 -18 7 -21 14
-7 14 6 0 13 -4 16 -10z m239 -998 c3 -5 -1 -9 -9 -9 -8 0 -12 4 -9 9 3 4 7 8
9 8 2 0 6 -4 9 -8z m36 -60 c0 -5 -7 -9 -15 -9 -8 0 -12 4 -9 9 3 4 9 8 15 8
5 0 9 -4 9 -8z m25 -642 c-3 -5 -12 -10 -18 -10 -7 0 -6 4 3 10 19 12 23 12
15 0z m5 -794 c0 -2 -8 -10 -17 -17 -16 -13 -17 -12 -4 4 13 16 21 21 21 13z
m-6393 -811 c0 -8 -4 -12 -9 -9 -5 3 -6 10 -3 15 9 13 12 11 12 -6z m6484
-112 c13 -16 12 -17 -3 -4 -17 13 -22 21 -14 21 2 0 10 -8 17 -17z m-6001
-323 c0 -5 -2 -10 -4 -10 -3 0 -8 5 -11 10 -3 6 -1 10 4 10 6 0 11 -4 11 -10z
m315 -89 c3 -5 2 -12 -3 -15 -5 -3 -9 1 -9 9 0 17 3 19 12 6z m-65 -5 c0 -2
-8 -10 -17 -17 -16 -13 -17 -12 -4 4 13 16 21 21 21 13z m751 -303 c13 -16 12
-17 -3 -4 -10 7 -18 15 -18 17 0 8 8 3 21 -13z"/>
</g>
</svg>
