<?xml version="1.0" encoding="utf-8"?>
<!-- Generator: Adobe Illustrator 26.3.1, SVG Export Plug-In . SVG Version: 6.00 Build 0)  -->
<svg version="1.1" id="Layer_1" xmlns="http://www.w3.org/2000/svg" xmlns:xlink="http://www.w3.org/1999/xlink" x="0px" y="0px"
	 viewBox="0 0 256 256" style="enable-background:new 0 0 256 256;" xml:space="preserve">
<style type="text/css">
	.st0{filter:url(#alpha);}
	.st1{opacity:0.4314;}
	.st2{opacity:0.1216;}
	.st3{mask:url(#mask0_00000178201279613560410500000000715564058035625628_);}
	.st4{fill:url(#SVGID_1_);}
	.st5{clip-path:url(#SVGID_00000133495869597217109410000002699970609436872372_);}
	.st6{fill:url(#SVGID_00000101081086071997871390000015593232755473864629_);}
	.st7{fill:#4B3F3A;}
	.st8{fill:#3A1A01;}
	.st9{clip-path:url(#SVGID_00000036943669927474810840000008633046693040110727_);}
	.st10{fill:#966429;}
	.st11{clip-path:url(#SVGID_00000103254924053545178490000008749912125671365055_);}
</style>
<filter  filterUnits="objectBoundingBox" height="100%" id="alpha" width="100%" x="0%" y="0%">
	<feColorMatrix  in="SourceGraphic" type="matrix" values="0 0 0 0 1 0 0 0 0 1 0 0 0 0 1 0 0 0 1 0"></feColorMatrix>
</filter>
<defs>
	<filter id="Adobe_OpacityMaskFilter" filterUnits="userSpaceOnUse" x="0" y="0" width="256" height="256">
		<feColorMatrix  type="matrix" values="1 0 0 0 0  0 1 0 0 0  0 0 1 0 0  0 0 0 1 0"/>
	</filter>
</defs>
<mask maskUnits="userSpaceOnUse" x="0" y="0" width="256" height="256" id="mask0_00000178201279613560410500000000715564058035625628_">
	<g class="st0">
		<g>
			<rect class="st1" width="256" height="256"/>
		</g>
	</g>
	<g class="st0">
		<g>
			<rect class="st2" width="256" height="256"/>
		</g>
	</g>
</mask>
<g id="surface1" class="st3">
	
		<linearGradient id="SVGID_1_" gradientUnits="userSpaceOnUse" x1="1160.3347" y1="-409.3192" x2="1154.5901" y2="-697.7021" gradientTransform="matrix(0.256 0 0 -0.256 -171.864 -105.816)">
		<stop  offset="0" style="stop-color:#D8C89E"/>
		<stop  offset="0.4946" style="stop-color:#C8AA61"/>
		<stop  offset="0.6901" style="stop-color:#AA8547"/>
		<stop  offset="0.8891" style="stop-color:#916631"/>
		<stop  offset="1" style="stop-color:#875A29"/>
	</linearGradient>
	<path class="st4" d="M190.3,12.6c-11.7,11.4-20.5,23.6-25.4,35.2c-5.1,12.3-8.4,23-12.4,25.3v1.7H97.9v-1.7
		c-5.3-5.2-7.7-17.9-13.9-29.6C77.8,32.2,67,20.5,59.5,13.3c-0.2-0.2-0.1-0.5,0.2-0.5c5.9,0.2,13,0.3,16.6,0.4c0.5,0,0.9,0,1.2,0
		c0.5,0,1-0.3,1.1-0.9c0.3-1.6,1.3-3,3.1-3.7c1.5-0.6,3.5-0.8,6.2-0.5c0.1,0,0.2,0,0.3,0c2.6,0.3,7.6,0.7,13.1,1.1
		c9.7,0.7,20.9,1.1,23.3-0.5c2-1.3,3.7-2.9,7.2-4.1c3.2-1.1,7.8-1.8,15.4-1.8c4.2,0,7.6,0.1,10.3,0.5c7.8,0.9,10.1,3.4,10.4,8.6
		c0,0.5,0.4,0.8,0.9,0.8c1.6-0.1,3.2-0.3,4.7-0.4c6.8-0.5,12.9-0.8,16.5-0.4C190.4,12,190.5,12.4,190.3,12.6z"/>
	<g>
		<g>
			<defs>
				<rect id="SVGID_00000152226755000211160350000005902342643746030222_" width="256" height="256"/>
			</defs>
			<clipPath id="SVGID_00000155852798096708737010000007459625496309888939_">
				<use xlink:href="#SVGID_00000152226755000211160350000005902342643746030222_"  style="overflow:visible;"/>
			</clipPath>
			<g id="surface5" style="clip-path:url(#SVGID_00000155852798096708737010000007459625496309888939_);">
				
					<radialGradient id="SVGID_00000042701954417811182670000017747606047967338906_" cx="1165.6077" cy="-1059.0867" r="401.8877" gradientTransform="matrix(0.256 0 0 -0.256 -171.864 -105.816)" gradientUnits="userSpaceOnUse">
					<stop  offset="0" style="stop-color:#EED276"/>
					<stop  offset="0.323" style="stop-color:#ECD074"/>
					<stop  offset="0.4815" style="stop-color:#E6C86F"/>
					<stop  offset="0.6041" style="stop-color:#DBBB66"/>
					<stop  offset="0.7083" style="stop-color:#CCA859"/>
					<stop  offset="0.8009" style="stop-color:#B89048"/>
					<stop  offset="0.8839" style="stop-color:#A07334"/>
					<stop  offset="0.9171" style="stop-color:#95652A"/>
				</radialGradient>
				<path style="fill:url(#SVGID_00000042701954417811182670000017747606047967338906_);" d="M220.5,217c-7.5-9.8-4.9-20.8-4.6-32.8
					c0.3-13.4,0.6-23.9-3.8-34.3c-3.9-9.2-5-18.3-4.2-26.4c0.2-2.2-0.2-4.4-1.2-6.4c-15.7-30.9-42-37.4-54.1-40.5v-1.7H97.9v1.7
					c-32.4,8.3-45.4,26-53.7,39.8c-1,1.6-1.3,3.5-0.9,5.4c1.1,6.4-0.1,13.2-2.4,20.3c-2.6,8.1-6,24.2-4.7,41.8c1,13.6-0.3,21.3-3,27
					c-1.8,3.7-1.5,8.1,0.8,11.5c3.4,5.2,9.7,12.3,20.4,17.5c19,9.1,46.6,13.4,74.2,13.4c16.6,0,26.5-1.4,44.9-1.4
					c20.7,0,39-15.3,47.2-27.3C222.3,222.3,222.2,219.3,220.5,217L220.5,217z"/>
			</g>
		</g>
	</g>
	<path class="st7" d="M155.2,170.5c-4.4-3.1-13-6.6-25.8-10.6V132c5.3,0.3,9,2.2,11,5.7c1.2,2,2,5.2,2.4,9.5h21.3
		c-0.3-11.7-5-20.2-14.1-25.4c-5-3.3-11.9-5.2-20.6-5.9V106h-7.9v9.7c-5.5,0.4-9.7,1-12.6,1.8c-4.7,1.3-9,3.7-12.8,7.2
		c-3,2.7-5.3,5.9-6.9,9.6c-1.6,3.7-2.5,7.8-2.5,12.4c0,6.9,2.1,12.8,6.4,17.7c4.2,4.9,11.5,8.7,21.8,11.4l6.6,1.8v31.3
		c-6.2-1-10.3-3.1-12.4-6.4c-1-1.6-1.9-4.3-2.5-8.2H84.3c0.8,11.3,5.2,19.5,13.5,24.5c5.2,3.1,13.2,5.2,23.8,6.3v8.5h7.9v-8.7
		c8.4-0.6,15.6-2.6,21.7-6c10-5.6,15-14.5,15-26.8C166.1,182.9,162.5,175.7,155.2,170.5L155.2,170.5z M121.6,157.8
		c-3.9-1.1-6.9-2.3-8.8-3.7c-3.4-2.4-5.1-5.6-5.1-9.7c0-3.8,1.1-6.7,3.4-8.9c2.3-2.2,5.8-3.3,10.4-3.4V157.8L121.6,157.8z
		 M138.6,206.1c-1.9,1.3-5,2.1-9.2,2.6v-28.7c4.5,1.5,7.7,3,9.5,4.4c3.2,2.4,4.7,5.8,4.7,10C143.7,199.9,142,203.8,138.6,206.1z"/>
	<path class="st8" d="M97.9,73.2h54.6v3.4H97.9V73.2z"/>
	<g>
		<g>
			<defs>
				<rect id="SVGID_00000065757689372627227800000007876735892555722921_" width="256" height="256"/>
			</defs>
			<clipPath id="SVGID_00000085225475177173617380000016437883386201141419_">
				<use xlink:href="#SVGID_00000065757689372627227800000007876735892555722921_"  style="overflow:visible;"/>
			</clipPath>
			<g id="surface8" style="clip-path:url(#SVGID_00000085225475177173617380000016437883386201141419_);">
				<path class="st10" d="M105.1,67.4c-4.2,4.1-7.3-11-13-24.3c-5.8-13.3-15.8-29.8-15.8-29.8c0.5,0,0.9,0,1.2,0
					c0.5,0,1-0.3,1.1-0.9c0.3-1.6,1.3-3,3.1-3.7c0,0,6,12.8,10.3,22.1C96.4,40.1,109.3,63.3,105.1,67.4z"/>
				<path class="st10" d="M120.9,65.8c-8.8,2.2-8.3-19.4-9.3-33.7c-1-14.2-10-22.6-10.2-22.8c9.7,0.7,20.9,1.1,23.3-0.5
					c2-1.3,3.7-2.9,7.2-4.1c-0.1,0.2-3.9,12-3.9,25.4C128,43.6,129.7,63.6,120.9,65.8z"/>
				<path class="st10" d="M173.6,12.4c0,0-2.6,5.2-9.2,16.7c-6.5,11.5-6.9,22.6-7.6,29.4s-3.8,6.4-5.7,0.9s1-20.1,5.2-33.2
					c4.1-12.9,1.4-22.6,1.3-22.8c7.8,0.9,10.1,3.4,10.4,8.6c0,0.5,0.4,0.8,0.9,0.8C170.5,12.6,172,12.5,173.6,12.4z"/>
			</g>
		</g>
	</g>
	<g>
		<g>
			<defs>
				<rect id="SVGID_00000017513080027995221880000015786944169084325293_" width="256" height="256"/>
			</defs>
			<clipPath id="SVGID_00000181055081272111147270000004967877189660473783_">
				<use xlink:href="#SVGID_00000017513080027995221880000015786944169084325293_"  style="overflow:visible;"/>
			</clipPath>
			<g id="surface11" style="clip-path:url(#SVGID_00000181055081272111147270000004967877189660473783_);">
				<path class="st10" d="M180.6,116.7c-1.8-8.1-3.6-20.6-6-25.3c0,0-2-6.6-2.4-7c-0.4-0.4-5.6-2.5-9.8-4.5c-1.6-0.8-0.4,4-0.3,4.5
					c0.7,2.7,1.7,5.2,2.6,7.8c3.7,10.3,6.8,21,8.9,31.8c1.8,9.3,3,18.7,3.3,28.1c0.8,24.9,5.3,28.8,8,20.4
					C187.8,164.1,183.3,129,180.6,116.7z"/>
				<path class="st10" d="M129.6,78.8l-0.7-1.6H118l0.6,1.6l1.5,5.3c0,0,3.9,14.4,10.3,21.2c6.4,6.8,11.5,4.7,7.6-7.1
					C134.1,86.5,129.6,78.8,129.6,78.8z"/>
				<path class="st10" d="M84.8,82.4c0,0,0,0-3.7,1.6c-3.7,1.6-4.8,7.2-4.8,7.2s-4.5,8.6-12.2,29c-7.6,20.4-12,45.5-8.4,50.6
					c3.5,5.1,5.3-7.1,7.8-19.7c2.5-12.7,20.3-63.6,20.3-63.6L84.8,82.4z"/>
				<path class="st10" d="M104,77.7c0,0-3.5-1.1-5.2,0c-1.7,1.1-1.9,5.4-1.9,5.4s-11.2,18.2-14.1,30.6s2.8,14.3,8.6,1.2
					c4.3-9.8,8.7-22.3,10.6-29.2c0-0.1,0-0.1,0.1-0.2L104,77.7z"/>
			</g>
		</g>
	</g>
</g>
</svg>
